G04 EAGLE Gerber RS-274X export*
G75*
%MOMM*%
%FSLAX34Y34*%
%LPD*%
%INTop Copper*%
%IPPOS*%
%AMOC8*
5,1,8,0,0,1.08239X$1,22.5*%
G01*
%ADD10R,1.360000X1.360000*%
%ADD11C,1.360000*%
%ADD12C,1.788163*%
%ADD13P,1.429621X8X22.500000*%
%ADD14R,2.240000X2.240000*%
%ADD15C,2.240000*%
%ADD16C,2.400000*%
%ADD17C,1.625600*%
%ADD18P,1.429621X8X202.500000*%
%ADD19P,1.759533X8X202.500000*%
%ADD20C,0.762000*%
%ADD21C,2.286000*%
%ADD22C,1.168400*%
%ADD23C,0.685800*%
%ADD24C,1.092200*%
%ADD25C,3.302000*%
%ADD26C,1.524000*%
%ADD27C,1.041400*%
%ADD28C,0.508000*%
%ADD29C,0.635000*%

G36*
X1993903Y10161D02*
X1993903Y10161D01*
X1993906Y10161D01*
X1994253Y10181D01*
X1994611Y10201D01*
X1994614Y10201D01*
X1994617Y10201D01*
X1994957Y10260D01*
X1995314Y10320D01*
X1995316Y10321D01*
X1995319Y10321D01*
X1995664Y10421D01*
X1995998Y10517D01*
X1996001Y10519D01*
X1996004Y10519D01*
X1996328Y10654D01*
X1996656Y10790D01*
X1996659Y10792D01*
X1996661Y10793D01*
X1996973Y10965D01*
X1997280Y11135D01*
X1997282Y11137D01*
X1997285Y11138D01*
X1997582Y11349D01*
X1997861Y11547D01*
X1997863Y11549D01*
X1997865Y11551D01*
X1998133Y11791D01*
X1998392Y12022D01*
X1998394Y12025D01*
X1998396Y12026D01*
X1998634Y12294D01*
X1998866Y12554D01*
X1998868Y12556D01*
X1998870Y12558D01*
X1999068Y12839D01*
X1999278Y13135D01*
X1999280Y13138D01*
X1999281Y13140D01*
X1999444Y13436D01*
X1999622Y13759D01*
X1999623Y13762D01*
X1999625Y13764D01*
X1999756Y14082D01*
X1999894Y14417D01*
X1999895Y14420D01*
X1999896Y14423D01*
X1999991Y14752D01*
X2000091Y15102D01*
X2000092Y15105D01*
X2000092Y15107D01*
X2000152Y15461D01*
X2000210Y15804D01*
X2000210Y15807D01*
X2000211Y15810D01*
X2000249Y16510D01*
X2000249Y215900D01*
X2000249Y215903D01*
X2000249Y215906D01*
X2000229Y216253D01*
X2000209Y216611D01*
X2000209Y216614D01*
X2000209Y216617D01*
X2000150Y216957D01*
X2000090Y217314D01*
X2000089Y217316D01*
X2000089Y217319D01*
X1999989Y217664D01*
X1999893Y217998D01*
X1999891Y218001D01*
X1999891Y218004D01*
X1999756Y218328D01*
X1999620Y218656D01*
X1999618Y218659D01*
X1999617Y218661D01*
X1999447Y218969D01*
X1999275Y219280D01*
X1999273Y219282D01*
X1999272Y219285D01*
X1999061Y219582D01*
X1998863Y219861D01*
X1998861Y219863D01*
X1998859Y219865D01*
X1998619Y220133D01*
X1998388Y220392D01*
X1998385Y220394D01*
X1998384Y220396D01*
X1998116Y220634D01*
X1997856Y220866D01*
X1997854Y220868D01*
X1997852Y220870D01*
X1997575Y221066D01*
X1997275Y221278D01*
X1997272Y221280D01*
X1997270Y221281D01*
X1996974Y221444D01*
X1996651Y221622D01*
X1996648Y221623D01*
X1996646Y221625D01*
X1996328Y221756D01*
X1995993Y221894D01*
X1995990Y221895D01*
X1995987Y221896D01*
X1995658Y221991D01*
X1995308Y222091D01*
X1995305Y222092D01*
X1995303Y222092D01*
X1994949Y222152D01*
X1994606Y222210D01*
X1994603Y222210D01*
X1994600Y222211D01*
X1993900Y222249D01*
X260349Y222249D01*
X260349Y1657351D01*
X393700Y1657351D01*
X393703Y1657351D01*
X393706Y1657351D01*
X394053Y1657371D01*
X394411Y1657391D01*
X394414Y1657391D01*
X394417Y1657391D01*
X394757Y1657450D01*
X395114Y1657510D01*
X395116Y1657511D01*
X395119Y1657511D01*
X395469Y1657613D01*
X395798Y1657707D01*
X395801Y1657709D01*
X395804Y1657709D01*
X396134Y1657847D01*
X396456Y1657980D01*
X396459Y1657982D01*
X396461Y1657983D01*
X396773Y1658155D01*
X397080Y1658325D01*
X397082Y1658327D01*
X397085Y1658328D01*
X397382Y1658539D01*
X397661Y1658738D01*
X397663Y1658739D01*
X397665Y1658741D01*
X397933Y1658981D01*
X398192Y1659212D01*
X398194Y1659215D01*
X398196Y1659216D01*
X398434Y1659484D01*
X398666Y1659744D01*
X398668Y1659746D01*
X398670Y1659748D01*
X398868Y1660029D01*
X399078Y1660325D01*
X399080Y1660328D01*
X399081Y1660330D01*
X399244Y1660626D01*
X399422Y1660949D01*
X399423Y1660952D01*
X399425Y1660954D01*
X399556Y1661272D01*
X399694Y1661607D01*
X399695Y1661610D01*
X399696Y1661613D01*
X399789Y1661937D01*
X399891Y1662292D01*
X399892Y1662295D01*
X399892Y1662298D01*
X399951Y1662648D01*
X400010Y1662994D01*
X400010Y1662997D01*
X400011Y1663000D01*
X400049Y1663700D01*
X400049Y1883490D01*
X400049Y1883493D01*
X400049Y1883496D01*
X400029Y1883842D01*
X400009Y1884201D01*
X400009Y1884204D01*
X400009Y1884207D01*
X399951Y1884544D01*
X399890Y1884904D01*
X399889Y1884906D01*
X399889Y1884909D01*
X399789Y1885254D01*
X399693Y1885588D01*
X399691Y1885591D01*
X399691Y1885594D01*
X399556Y1885918D01*
X399420Y1886246D01*
X399418Y1886249D01*
X399417Y1886251D01*
X399249Y1886555D01*
X399075Y1886870D01*
X399073Y1886872D01*
X399072Y1886875D01*
X398873Y1887155D01*
X398662Y1887451D01*
X398661Y1887453D01*
X398659Y1887455D01*
X398419Y1887723D01*
X398188Y1887982D01*
X398185Y1887984D01*
X398184Y1887986D01*
X397916Y1888224D01*
X397656Y1888456D01*
X397654Y1888458D01*
X397652Y1888460D01*
X397363Y1888664D01*
X397075Y1888868D01*
X397072Y1888869D01*
X397070Y1888871D01*
X396766Y1889039D01*
X396451Y1889212D01*
X396448Y1889213D01*
X396446Y1889215D01*
X396128Y1889346D01*
X395793Y1889484D01*
X395790Y1889485D01*
X395787Y1889486D01*
X395458Y1889581D01*
X395108Y1889681D01*
X395105Y1889682D01*
X395102Y1889682D01*
X394749Y1889742D01*
X394406Y1889800D01*
X394403Y1889800D01*
X394400Y1889801D01*
X393700Y1889839D01*
X100000Y1889839D01*
X99864Y1889832D01*
X99723Y1889833D01*
X92446Y1889516D01*
X92382Y1889509D01*
X92317Y1889509D01*
X92015Y1889472D01*
X91738Y1889445D01*
X91680Y1889432D01*
X91621Y1889425D01*
X77289Y1886898D01*
X77091Y1886852D01*
X76891Y1886815D01*
X76742Y1886769D01*
X76595Y1886735D01*
X76413Y1886670D01*
X76220Y1886612D01*
X62544Y1881634D01*
X62357Y1881554D01*
X62166Y1881483D01*
X62028Y1881413D01*
X61889Y1881353D01*
X61721Y1881257D01*
X61541Y1881166D01*
X48937Y1873890D01*
X48767Y1873778D01*
X48592Y1873675D01*
X48467Y1873582D01*
X48341Y1873499D01*
X48192Y1873376D01*
X48031Y1873255D01*
X36882Y1863900D01*
X36734Y1863761D01*
X36579Y1863629D01*
X36473Y1863516D01*
X36363Y1863412D01*
X36237Y1863264D01*
X36100Y1863118D01*
X26745Y1851969D01*
X26623Y1851806D01*
X26494Y1851649D01*
X26409Y1851519D01*
X26319Y1851399D01*
X26221Y1851231D01*
X26110Y1851063D01*
X18834Y1838459D01*
X18742Y1838277D01*
X18642Y1838100D01*
X18581Y1837958D01*
X18513Y1837823D01*
X18445Y1837641D01*
X18366Y1837456D01*
X13388Y1823780D01*
X13330Y1823586D01*
X13262Y1823394D01*
X13226Y1823243D01*
X13183Y1823098D01*
X13148Y1822907D01*
X13102Y1822711D01*
X10575Y1808379D01*
X10567Y1808315D01*
X10554Y1808251D01*
X10524Y1807947D01*
X10491Y1807672D01*
X10490Y1807613D01*
X10484Y1807554D01*
X10167Y1800277D01*
X10168Y1800140D01*
X10161Y1800000D01*
X10161Y100000D01*
X10168Y99864D01*
X10167Y99723D01*
X10484Y92446D01*
X10491Y92382D01*
X10491Y92317D01*
X10515Y92117D01*
X10523Y91984D01*
X10542Y91875D01*
X10555Y91738D01*
X10568Y91680D01*
X10575Y91621D01*
X13102Y77289D01*
X13148Y77091D01*
X13185Y76891D01*
X13231Y76742D01*
X13265Y76595D01*
X13330Y76413D01*
X13388Y76220D01*
X18366Y62544D01*
X18446Y62357D01*
X18517Y62166D01*
X18587Y62028D01*
X18647Y61889D01*
X18743Y61721D01*
X18834Y61541D01*
X26110Y48937D01*
X26222Y48767D01*
X26325Y48592D01*
X26418Y48468D01*
X26501Y48341D01*
X26624Y48192D01*
X26745Y48031D01*
X36100Y36882D01*
X36239Y36734D01*
X36371Y36579D01*
X36484Y36473D01*
X36588Y36363D01*
X36735Y36238D01*
X36882Y36100D01*
X48031Y26745D01*
X48194Y26623D01*
X48351Y26494D01*
X48481Y26409D01*
X48601Y26319D01*
X48769Y26221D01*
X48937Y26110D01*
X61541Y18834D01*
X61723Y18742D01*
X61900Y18642D01*
X62042Y18581D01*
X62177Y18513D01*
X62359Y18445D01*
X62544Y18366D01*
X76220Y13388D01*
X76414Y13330D01*
X76606Y13262D01*
X76757Y13226D01*
X76902Y13183D01*
X77093Y13148D01*
X77289Y13102D01*
X91621Y10575D01*
X91685Y10567D01*
X91749Y10554D01*
X92053Y10524D01*
X92328Y10491D01*
X92387Y10490D01*
X92446Y10484D01*
X99723Y10167D01*
X99860Y10168D01*
X100000Y10161D01*
X1993900Y10161D01*
X1993903Y10161D01*
G37*
%LPC*%
G36*
X95551Y1774844D02*
X95551Y1774844D01*
X88897Y1776627D01*
X82932Y1780071D01*
X78061Y1784942D01*
X74617Y1790907D01*
X72834Y1797561D01*
X72834Y1804449D01*
X74617Y1811103D01*
X78061Y1817068D01*
X82932Y1821939D01*
X88897Y1825383D01*
X95551Y1827166D01*
X102439Y1827166D01*
X109093Y1825383D01*
X115058Y1821939D01*
X119929Y1817068D01*
X123373Y1811103D01*
X125156Y1804449D01*
X125156Y1797561D01*
X123373Y1790907D01*
X119929Y1784942D01*
X115058Y1780071D01*
X109093Y1776627D01*
X102439Y1774844D01*
X95551Y1774844D01*
G37*
%LPD*%
%LPC*%
G36*
X1396507Y73839D02*
X1396507Y73839D01*
X1389853Y75622D01*
X1383888Y79066D01*
X1379017Y83937D01*
X1375573Y89902D01*
X1373790Y96556D01*
X1373790Y103444D01*
X1375573Y110098D01*
X1379017Y116063D01*
X1383888Y120934D01*
X1389853Y124378D01*
X1396507Y126161D01*
X1403395Y126161D01*
X1410049Y124378D01*
X1416014Y120934D01*
X1420885Y116063D01*
X1424329Y110098D01*
X1426112Y103444D01*
X1426112Y96556D01*
X1424329Y89902D01*
X1420885Y83937D01*
X1416014Y79066D01*
X1410049Y75622D01*
X1403395Y73839D01*
X1396507Y73839D01*
G37*
%LPD*%
%LPC*%
G36*
X95551Y72834D02*
X95551Y72834D01*
X88897Y74617D01*
X82932Y78061D01*
X78061Y82932D01*
X74617Y88897D01*
X72834Y95551D01*
X72834Y102439D01*
X74617Y109093D01*
X78061Y115058D01*
X82932Y119929D01*
X88897Y123373D01*
X95551Y125156D01*
X102439Y125156D01*
X109093Y123373D01*
X115058Y119929D01*
X119929Y115058D01*
X123373Y109093D01*
X125156Y102439D01*
X125156Y95551D01*
X123373Y88897D01*
X119929Y82932D01*
X115058Y78061D01*
X109093Y74617D01*
X102439Y72834D01*
X95551Y72834D01*
G37*
%LPD*%
%LPC*%
G36*
X96556Y923869D02*
X96556Y923869D01*
X89902Y925652D01*
X83937Y929096D01*
X79066Y933967D01*
X75622Y939932D01*
X73839Y946586D01*
X73839Y953474D01*
X75622Y960128D01*
X79066Y966093D01*
X83937Y970964D01*
X89902Y974408D01*
X96556Y976191D01*
X103444Y976191D01*
X110098Y974408D01*
X116063Y970964D01*
X120934Y966093D01*
X124378Y960128D01*
X126161Y953474D01*
X126161Y946586D01*
X124378Y939932D01*
X120934Y933967D01*
X116063Y929096D01*
X110098Y925652D01*
X103444Y923869D01*
X96556Y923869D01*
G37*
%LPD*%
%LPC*%
G36*
X284330Y1747965D02*
X284330Y1747965D01*
X279359Y1750024D01*
X275554Y1753829D01*
X273495Y1758800D01*
X273495Y1764180D01*
X275554Y1769151D01*
X279359Y1772956D01*
X284330Y1775015D01*
X289710Y1775015D01*
X294681Y1772956D01*
X298486Y1769151D01*
X300545Y1764180D01*
X300545Y1758800D01*
X298486Y1753829D01*
X294681Y1750024D01*
X289710Y1747965D01*
X284330Y1747965D01*
G37*
%LPD*%
%LPC*%
G36*
X243369Y1767839D02*
X243369Y1767839D01*
X243369Y1774599D01*
X243465Y1774559D01*
X245116Y1773606D01*
X246628Y1772446D01*
X247976Y1771098D01*
X249136Y1769586D01*
X250089Y1767935D01*
X250129Y1767839D01*
X243369Y1767839D01*
G37*
%LPD*%
%LPC*%
G36*
X243369Y1755141D02*
X243369Y1755141D01*
X250129Y1755141D01*
X250089Y1755045D01*
X249136Y1753394D01*
X247976Y1751882D01*
X246628Y1750534D01*
X245116Y1749374D01*
X243465Y1748421D01*
X243369Y1748381D01*
X243369Y1755141D01*
G37*
%LPD*%
%LPC*%
G36*
X223911Y1767839D02*
X223911Y1767839D01*
X223951Y1767935D01*
X224904Y1769586D01*
X226064Y1771098D01*
X227412Y1772446D01*
X228924Y1773606D01*
X230575Y1774559D01*
X230671Y1774599D01*
X230671Y1767839D01*
X223911Y1767839D01*
G37*
%LPD*%
%LPC*%
G36*
X230575Y1748421D02*
X230575Y1748421D01*
X228924Y1749374D01*
X227412Y1750534D01*
X226064Y1751882D01*
X224904Y1753394D01*
X223951Y1755045D01*
X223911Y1755141D01*
X230671Y1755141D01*
X230671Y1748381D01*
X230575Y1748421D01*
G37*
%LPD*%
D10*
X2627630Y1548130D03*
D11*
X2627630Y1522730D03*
X2627630Y1497330D03*
X2627630Y1471930D03*
X2627630Y1446530D03*
X2627630Y1421130D03*
X2627630Y1395730D03*
X2627630Y1370330D03*
X2627630Y1319530D03*
X2627630Y1294130D03*
X2627630Y1268730D03*
X2627630Y1243330D03*
X2627630Y1217930D03*
X2627630Y1192530D03*
X2627630Y1167130D03*
X2627630Y1141730D03*
X2627630Y1090930D03*
X2627630Y1065530D03*
X2627630Y1040130D03*
X2627630Y1014730D03*
X2627630Y989330D03*
X2627630Y963930D03*
X2627630Y941070D03*
X2627630Y915670D03*
X2576830Y862330D03*
X2576830Y887730D03*
X2551430Y862330D03*
X2551430Y887730D03*
X2526030Y862330D03*
X2526030Y887730D03*
X2500630Y862330D03*
X2500630Y887730D03*
X2475230Y887730D03*
X2475230Y862330D03*
X2449830Y887730D03*
X2449830Y862330D03*
X2424430Y887730D03*
X2424430Y862330D03*
X2399030Y887730D03*
X2399030Y862330D03*
X2373630Y887730D03*
X2373630Y862330D03*
X2348230Y887730D03*
X2348230Y862330D03*
X2322830Y887730D03*
X2322830Y862330D03*
X2297430Y887730D03*
X2297430Y862330D03*
X2272030Y887730D03*
X2272030Y862330D03*
X2246630Y887730D03*
X2246630Y862330D03*
X2221230Y887730D03*
X2221230Y862330D03*
X2195830Y887730D03*
X2195830Y862330D03*
X2170430Y887730D03*
X2170430Y862330D03*
X2145030Y887730D03*
X2145030Y862330D03*
X2145030Y963930D03*
X2145030Y989330D03*
X2145030Y1014730D03*
X2145030Y1040130D03*
X2145030Y1065530D03*
X2145030Y1090930D03*
X2145030Y1116330D03*
X2145030Y1141730D03*
X2145030Y1192530D03*
X2145030Y1217930D03*
X2145030Y1243330D03*
X2145030Y1268730D03*
X2145030Y1294130D03*
X2145030Y1319530D03*
X2145030Y1344930D03*
X2145030Y1370330D03*
X2145030Y1410970D03*
X2145030Y1436370D03*
X2145030Y1461770D03*
X2145030Y1487170D03*
X2145030Y1512570D03*
X2145030Y1537970D03*
X2145030Y1563370D03*
X2145030Y1588770D03*
X2145030Y1614170D03*
X2145030Y1639570D03*
D12*
X491490Y1445260D03*
X491490Y1343660D03*
X1893570Y839470D03*
X1893570Y737870D03*
X1892300Y430530D03*
X1892300Y328930D03*
X1601470Y430530D03*
X1601470Y328930D03*
X1310640Y433070D03*
X1310640Y331470D03*
X1028700Y433070D03*
X1028700Y331470D03*
X742950Y429260D03*
X742950Y327660D03*
X488950Y436880D03*
X488950Y335280D03*
X779780Y1437640D03*
X779780Y1336040D03*
X1062990Y1437640D03*
X1062990Y1336040D03*
X1346200Y1437640D03*
X1346200Y1336040D03*
X1624330Y1437640D03*
X1624330Y1336040D03*
X1896110Y1441450D03*
X1896110Y1339850D03*
X847090Y843280D03*
X847090Y741680D03*
X1201420Y835660D03*
X1201420Y734060D03*
X1550670Y834390D03*
X1550670Y732790D03*
D13*
X356870Y1288415D03*
X382270Y1288415D03*
X1766570Y684530D03*
X1791970Y684530D03*
X1758950Y283210D03*
X1784350Y283210D03*
X1471930Y283210D03*
X1497330Y283210D03*
X1193800Y281940D03*
X1219200Y281940D03*
X909320Y280670D03*
X934720Y280670D03*
X632460Y285750D03*
X657860Y285750D03*
X351790Y279400D03*
X377190Y279400D03*
X646430Y1287145D03*
X671830Y1287145D03*
X935990Y1288415D03*
X961390Y1288415D03*
X1214120Y1288415D03*
X1239520Y1288415D03*
X1494790Y1287145D03*
X1520190Y1287145D03*
X1765300Y1283335D03*
X1790700Y1283335D03*
X712470Y693420D03*
X737870Y693420D03*
X1070610Y688340D03*
X1096010Y688340D03*
X1421130Y683260D03*
X1446530Y683260D03*
D14*
X1055370Y1761490D03*
D15*
X1005370Y1761490D03*
X955370Y1761490D03*
X905370Y1761490D03*
X855370Y1761490D03*
X805370Y1761490D03*
X755370Y1761490D03*
X705370Y1761490D03*
X655370Y1761490D03*
X605370Y1761490D03*
D16*
X287020Y1761490D03*
X237020Y1761490D03*
D17*
X364490Y1480058D02*
X364490Y1463802D01*
X389890Y1463802D02*
X389890Y1480058D01*
X415290Y1480058D02*
X415290Y1463802D01*
X1770380Y879348D02*
X1770380Y863092D01*
X1795780Y863092D02*
X1795780Y879348D01*
X1821180Y879348D02*
X1821180Y863092D01*
X1762760Y469138D02*
X1762760Y452882D01*
X1788160Y452882D02*
X1788160Y469138D01*
X1813560Y469138D02*
X1813560Y452882D01*
X1479550Y455422D02*
X1479550Y471678D01*
X1504950Y471678D02*
X1504950Y455422D01*
X1530350Y455422D02*
X1530350Y471678D01*
X1201420Y476758D02*
X1201420Y460502D01*
X1226820Y460502D02*
X1226820Y476758D01*
X1252220Y476758D02*
X1252220Y460502D01*
X911860Y457962D02*
X911860Y474218D01*
X937260Y474218D02*
X937260Y457962D01*
X962660Y457962D02*
X962660Y474218D01*
X636270Y474218D02*
X636270Y457962D01*
X661670Y457962D02*
X661670Y474218D01*
X687070Y474218D02*
X687070Y457962D01*
X353060Y461772D02*
X353060Y478028D01*
X378460Y478028D02*
X378460Y461772D01*
X403860Y461772D02*
X403860Y478028D01*
X650240Y1463802D02*
X650240Y1480058D01*
X675640Y1480058D02*
X675640Y1463802D01*
X701040Y1463802D02*
X701040Y1480058D01*
X937260Y1480058D02*
X937260Y1463802D01*
X962660Y1463802D02*
X962660Y1480058D01*
X988060Y1480058D02*
X988060Y1463802D01*
X1217930Y1462532D02*
X1217930Y1478788D01*
X1243330Y1478788D02*
X1243330Y1462532D01*
X1268730Y1462532D02*
X1268730Y1478788D01*
X1496060Y1478788D02*
X1496060Y1462532D01*
X1521460Y1462532D02*
X1521460Y1478788D01*
X1546860Y1478788D02*
X1546860Y1462532D01*
X1775460Y1465072D02*
X1775460Y1481328D01*
X1800860Y1481328D02*
X1800860Y1465072D01*
X1826260Y1465072D02*
X1826260Y1481328D01*
X716280Y880618D02*
X716280Y864362D01*
X741680Y864362D02*
X741680Y880618D01*
X767080Y880618D02*
X767080Y864362D01*
X1075690Y860552D02*
X1075690Y876808D01*
X1101090Y876808D02*
X1101090Y860552D01*
X1126490Y860552D02*
X1126490Y876808D01*
X1421130Y875538D02*
X1421130Y859282D01*
X1446530Y859282D02*
X1446530Y875538D01*
X1471930Y875538D02*
X1471930Y859282D01*
D13*
X341630Y1417320D03*
X443230Y1417320D03*
X1197610Y1416050D03*
X1299210Y1416050D03*
X1197610Y1381760D03*
X1299210Y1381760D03*
X1196340Y1344930D03*
X1297940Y1344930D03*
X1477010Y1414780D03*
X1578610Y1414780D03*
X1477010Y1379220D03*
X1578610Y1379220D03*
X1478280Y1341120D03*
X1579880Y1341120D03*
X1756410Y1418590D03*
X1858010Y1418590D03*
X1756410Y1379220D03*
X1858010Y1379220D03*
X1756410Y1342390D03*
X1858010Y1342390D03*
X695960Y821690D03*
X797560Y821690D03*
X341630Y1379220D03*
X443230Y1379220D03*
X695960Y782320D03*
X797560Y782320D03*
X694690Y745490D03*
X796290Y745490D03*
X1057910Y810260D03*
X1159510Y810260D03*
X1057910Y778510D03*
X1159510Y778510D03*
X1056640Y741680D03*
X1158240Y741680D03*
X1403350Y810260D03*
X1504950Y810260D03*
X1403350Y777240D03*
X1504950Y777240D03*
X1403350Y740410D03*
X1504950Y740410D03*
X1748790Y812800D03*
X1850390Y812800D03*
X1748790Y777240D03*
X1850390Y777240D03*
X342900Y1343660D03*
X444500Y1343660D03*
X1750060Y739140D03*
X1851660Y739140D03*
X1743710Y408940D03*
X1845310Y408940D03*
X1743710Y373380D03*
X1845310Y373380D03*
X1743710Y336550D03*
X1845310Y336550D03*
X1460500Y403860D03*
X1562100Y403860D03*
X1460500Y370840D03*
X1562100Y370840D03*
X1460500Y336550D03*
X1562100Y336550D03*
X1176020Y411480D03*
X1277620Y411480D03*
X1177290Y373380D03*
X1278890Y373380D03*
X1174750Y336550D03*
X1276350Y336550D03*
X632460Y1413510D03*
X734060Y1413510D03*
X891540Y406400D03*
X993140Y406400D03*
X891540Y372110D03*
X993140Y372110D03*
X891540Y336550D03*
X993140Y336550D03*
X615950Y406400D03*
X717550Y406400D03*
X615950Y375920D03*
X717550Y375920D03*
X615950Y339090D03*
X717550Y339090D03*
X332740Y407670D03*
X434340Y407670D03*
X332740Y370840D03*
X434340Y370840D03*
X332740Y335280D03*
X434340Y335280D03*
X631190Y1376680D03*
X732790Y1376680D03*
X631190Y1339850D03*
X732790Y1339850D03*
X916940Y1414780D03*
X1018540Y1414780D03*
X916940Y1380490D03*
X1018540Y1380490D03*
X915670Y1343660D03*
X1017270Y1343660D03*
X342900Y782320D03*
X444500Y782320D03*
X342900Y816610D03*
X444500Y816610D03*
X341630Y745490D03*
X443230Y745490D03*
D17*
X365760Y864362D02*
X365760Y880618D01*
X391160Y880618D02*
X391160Y864362D01*
X416560Y864362D02*
X416560Y880618D01*
D13*
X360680Y693420D03*
X386080Y693420D03*
D12*
X487680Y840740D03*
X487680Y739140D03*
D14*
X1689100Y1760220D03*
D15*
X1639100Y1760220D03*
X1589100Y1760220D03*
X1539100Y1760220D03*
X1489100Y1760220D03*
X1439100Y1760220D03*
X1389100Y1760220D03*
D17*
X1250950Y1780032D02*
X1250950Y1796288D01*
X1225550Y1796288D02*
X1225550Y1780032D01*
X1200150Y1780032D02*
X1200150Y1796288D01*
D18*
X1273810Y1732280D03*
X1172210Y1732280D03*
D17*
X419100Y1782572D02*
X419100Y1798828D01*
X444500Y1798828D02*
X444500Y1782572D01*
X469900Y1782572D02*
X469900Y1798828D01*
D19*
X2463800Y127000D03*
X2438400Y127000D03*
X2413000Y127000D03*
X2387600Y127000D03*
X2362200Y127000D03*
X2336800Y127000D03*
X2311400Y127000D03*
X2286000Y127000D03*
X2260600Y127000D03*
X2235200Y127000D03*
X2209800Y127000D03*
X2184400Y127000D03*
X2159000Y127000D03*
X2133600Y127000D03*
X2108200Y127000D03*
X2082800Y127000D03*
X2057400Y127000D03*
X2032000Y127000D03*
X2463800Y152400D03*
X2438400Y152400D03*
X2413000Y152400D03*
X2387600Y152400D03*
X2362200Y152400D03*
X2336800Y152400D03*
X2311400Y152400D03*
X2286000Y152400D03*
X2260600Y152400D03*
X2235200Y152400D03*
X2209800Y152400D03*
X2184400Y152400D03*
X2159000Y152400D03*
X2133600Y152400D03*
X2108200Y152400D03*
X2082800Y152400D03*
X2057400Y152400D03*
X2032000Y152400D03*
D17*
X2002790Y1788922D02*
X2002790Y1805178D01*
X1977390Y1805178D02*
X1977390Y1788922D01*
X1951990Y1788922D02*
X1951990Y1805178D01*
D18*
X1916430Y1821180D03*
X1814830Y1821180D03*
D20*
X443230Y1379220D02*
X364490Y1379220D01*
X364490Y1471930D01*
D21*
X342900Y1343660D02*
X342900Y1302385D01*
X356870Y1288415D01*
D20*
X650240Y1376680D02*
X650240Y1471930D01*
X650240Y1376680D02*
X732790Y1376680D01*
D21*
X631190Y1339850D02*
X631190Y1302385D01*
X646430Y1287145D01*
D20*
X937260Y1380490D02*
X937260Y1471930D01*
X937260Y1380490D02*
X1018540Y1380490D01*
D21*
X915670Y1343660D02*
X915670Y1308735D01*
X935990Y1288415D01*
D20*
X1217930Y1381760D02*
X1217930Y1470660D01*
X1217930Y1381760D02*
X1299210Y1381760D01*
D21*
X1196340Y1344930D02*
X1196340Y1306195D01*
X1214120Y1288415D01*
D20*
X1496060Y1379220D02*
X1496060Y1470660D01*
X1496060Y1379220D02*
X1578610Y1379220D01*
D21*
X1478280Y1341120D02*
X1478280Y1303655D01*
X1494790Y1287145D01*
D20*
X1775460Y1379220D02*
X1775460Y1473200D01*
X1775460Y1379220D02*
X1858010Y1379220D01*
D21*
X1756410Y1342390D02*
X1756410Y1292225D01*
X1765300Y1283335D01*
D20*
X716280Y872490D02*
X716280Y782320D01*
X797560Y782320D01*
D21*
X694690Y745490D02*
X694690Y711200D01*
X712470Y693420D01*
D20*
X632460Y1377950D02*
X632460Y1413510D01*
X632460Y1377950D02*
X631190Y1376680D01*
X916940Y1380490D02*
X916940Y1414780D01*
X1197610Y1416050D02*
X1197610Y1381760D01*
X1477010Y1379220D02*
X1477010Y1414780D01*
X1756410Y1418590D02*
X1756410Y1379220D01*
X695960Y821690D02*
X695960Y782320D01*
X1057910Y778510D02*
X1057910Y810260D01*
X1403350Y810260D02*
X1403350Y777240D01*
X1748790Y777240D02*
X1748790Y812800D01*
D22*
X2123440Y993140D03*
D20*
X2132330Y1002030D01*
X2145030Y1294130D02*
X2169160Y1294130D01*
X2164080Y1002030D02*
X2132330Y1002030D01*
X2164080Y1002030D02*
X2170430Y1008380D01*
X2170430Y1292860D02*
X2169160Y1294130D01*
X2170430Y1292860D02*
X2170430Y1008380D01*
X1743710Y408940D02*
X1743710Y373380D01*
D22*
X2125980Y711200D03*
D20*
X2310706Y711200D01*
D23*
X2310706Y916364D01*
D20*
X2626936Y916364D01*
D23*
X2627630Y915670D01*
D20*
X1460500Y403860D02*
X1460500Y370840D01*
D22*
X2125980Y732790D03*
D20*
X2284730Y732790D01*
X2284730Y941070D01*
X2627630Y941070D01*
X1176020Y411480D02*
X1176020Y374650D01*
X1177290Y373380D01*
D22*
X2125980Y754380D03*
D20*
X2259330Y754380D01*
X2259330Y963930D01*
X2627630Y963930D01*
X891540Y406400D02*
X891540Y372110D01*
D22*
X2125980Y775970D03*
D20*
X2233930Y775970D01*
X2233930Y989330D01*
X2627630Y989330D01*
X615950Y406400D02*
X615950Y375920D01*
D22*
X2125980Y800100D03*
D20*
X2208530Y800100D02*
X2208530Y1016000D01*
X2208530Y800100D02*
X2125980Y800100D01*
X2208530Y1016000D02*
X2626360Y1016000D01*
D23*
X2627630Y1014730D01*
D20*
X341630Y1379220D02*
X341630Y1417320D01*
X332740Y407670D02*
X332740Y370840D01*
D22*
X2125980Y822960D03*
D20*
X2183130Y822960D01*
X2183130Y929640D01*
D24*
X2183130Y929640D03*
D21*
X488950Y335280D02*
X488950Y148590D01*
X742950Y143510D02*
X742950Y327660D01*
X1028700Y331470D02*
X1028700Y148590D01*
X1310640Y139700D02*
X1310640Y331470D01*
X1601470Y328930D02*
X1601470Y134620D01*
X491490Y1343660D02*
X444500Y1343660D01*
X732790Y1339850D02*
X775970Y1339850D01*
X779780Y1336040D01*
X1017270Y1343660D02*
X1055370Y1343660D01*
X1062990Y1336040D01*
X1297940Y1344930D02*
X1337310Y1344930D01*
X1579880Y1341120D02*
X1619250Y1341120D01*
X1624330Y1336040D01*
X1858010Y1342390D02*
X1893570Y1342390D01*
X1892300Y739140D02*
X1851660Y739140D01*
X1892300Y739140D02*
X1893570Y737870D01*
X1543050Y740410D02*
X1504950Y740410D01*
X1193800Y741680D02*
X1158240Y741680D01*
X1193800Y741680D02*
X1201420Y734060D01*
X843280Y745490D02*
X796290Y745490D01*
X843280Y745490D02*
X847090Y741680D01*
X488950Y335280D02*
X434340Y335280D01*
X717550Y339090D02*
X731520Y339090D01*
X742950Y327660D01*
X993140Y336550D02*
X994410Y337820D01*
X1022350Y337820D01*
X1028700Y331470D01*
X1276350Y336550D02*
X1305560Y336550D01*
X1310640Y331470D01*
X1562100Y336550D02*
X1593850Y336550D01*
X1601470Y328930D01*
X1845310Y336550D02*
X1884680Y336550D01*
X1892300Y328930D01*
X1892300Y134620D01*
X487680Y739140D02*
X449580Y739140D01*
X443230Y745490D01*
X491490Y1258570D02*
X491490Y1343660D01*
X491490Y1258570D02*
X203200Y1258570D01*
X779780Y1262380D02*
X779780Y1336040D01*
X779780Y1262380D02*
X774700Y1257300D01*
X541020Y1257300D02*
X511810Y1228090D01*
X201930Y1228090D01*
X541020Y1257300D02*
X774700Y1257300D01*
X556260Y1224280D02*
X529590Y1197610D01*
X201930Y1197610D01*
X1062990Y1257300D02*
X1062990Y1336040D01*
X791210Y1224280D02*
X556260Y1224280D01*
X824230Y1257300D02*
X1062990Y1257300D01*
X824230Y1257300D02*
X791210Y1224280D01*
X838200Y1224280D02*
X1075690Y1224280D01*
X838200Y1224280D02*
X803910Y1189990D01*
X567690Y1189990D01*
X542290Y1164590D01*
X201930Y1164590D01*
X1075690Y1224280D02*
X1109980Y1258570D01*
X1624330Y1259840D02*
X1624330Y1336040D01*
X1624330Y1259840D02*
X1621790Y1257300D01*
X1397000Y1257300D01*
X1362710Y1223010D01*
X1129030Y1223010D01*
X1094740Y1188720D01*
X852170Y1188720D01*
X819150Y1155700D01*
X581660Y1155700D01*
X558800Y1132840D02*
X200660Y1132840D01*
X558800Y1132840D02*
X581660Y1155700D01*
X1639570Y1223010D02*
X1668780Y1252220D01*
X1639570Y1223010D02*
X1413510Y1223010D01*
X1377950Y1187450D01*
X1146810Y1187450D01*
X1113790Y1154430D01*
X871220Y1154430D01*
X839470Y1122680D01*
X599440Y1122680D01*
X576580Y1099820D02*
X199390Y1099820D01*
X576580Y1099820D02*
X599440Y1122680D01*
X487680Y739140D02*
X487680Y657860D01*
X203200Y657860D01*
X847090Y664210D02*
X847090Y741680D01*
X549910Y664210D02*
X510540Y624840D01*
X203200Y624840D01*
X549910Y664210D02*
X847090Y664210D01*
X1201420Y656590D02*
X1201420Y734060D01*
X890270Y656590D02*
X864870Y631190D01*
X561340Y631190D01*
X520700Y590550D01*
X200660Y590550D01*
X890270Y656590D02*
X1201420Y656590D01*
X1219200Y626110D02*
X1248410Y655320D01*
X1219200Y626110D02*
X906780Y626110D01*
X880110Y599440D01*
X570230Y599440D01*
X529590Y558800D01*
X207010Y558800D01*
X1893570Y656590D02*
X1893570Y737870D01*
X1609090Y656590D02*
X1576070Y623570D01*
X1263650Y623570D01*
X1233170Y593090D01*
X920750Y593090D01*
X894080Y566420D01*
X582930Y566420D01*
X543560Y527050D01*
X201930Y527050D01*
X1609090Y656590D02*
X1893570Y656590D01*
X444500Y1790700D02*
X444500Y1841500D01*
X368300Y1841500D01*
D22*
X2692400Y601980D03*
D20*
X2202180Y601980D01*
X2171700Y571500D01*
X2171700Y435610D01*
X1974850Y435610D01*
X1958340Y419100D02*
X1958340Y195580D01*
X1958340Y419100D02*
X1974850Y435610D01*
D21*
X1550670Y655320D02*
X1248410Y655320D01*
X1550670Y655320D02*
X1550670Y732790D01*
X1543050Y740410D01*
X1668780Y1252220D02*
X1896110Y1252220D01*
X1896110Y1339850D01*
X1893570Y1342390D01*
X1346200Y1258570D02*
X1109980Y1258570D01*
X1346200Y1258570D02*
X1346200Y1336040D01*
X1337310Y1344930D01*
X415290Y1471930D02*
X415290Y1503680D01*
X289560Y1503680D01*
D25*
X289560Y1503680D03*
D21*
X416560Y904240D02*
X416560Y872490D01*
X416560Y904240D02*
X294640Y904240D01*
D25*
X294640Y904240D03*
D21*
X403860Y469900D02*
X525780Y469900D01*
X525780Y247650D01*
D25*
X525780Y247650D03*
D21*
X687070Y466090D02*
X783590Y466090D01*
D25*
X783590Y245110D03*
D21*
X783590Y466090D01*
X962660Y466090D02*
X1065530Y466090D01*
X1065530Y248920D01*
X1064514Y248920D01*
D25*
X1064514Y248920D03*
D21*
X1252220Y468630D02*
X1347470Y468630D01*
X1347470Y245110D01*
D25*
X1347470Y245110D03*
D21*
X1530350Y463550D02*
X1640840Y463550D01*
X1640840Y245110D01*
D25*
X1640840Y245110D03*
D21*
X1813560Y461010D02*
X1930400Y461010D01*
X1930400Y247650D01*
D25*
X1930400Y247650D03*
D21*
X767080Y872490D02*
X767080Y906780D01*
X463550Y906780D02*
X426720Y943610D01*
X294640Y943610D01*
D25*
X294640Y943610D03*
D21*
X463550Y906780D02*
X767080Y906780D01*
X1126490Y908050D02*
X1126490Y868680D01*
X819150Y908050D02*
X787400Y939800D01*
X481330Y939800D01*
X438150Y982980D01*
X294640Y982980D01*
D25*
X294640Y982980D03*
D21*
X819150Y908050D02*
X1126490Y908050D01*
X1471930Y909320D02*
X1471930Y867410D01*
X1169670Y909320D02*
X1139190Y939800D01*
X1169670Y909320D02*
X1471930Y909320D01*
X1139190Y939800D02*
X835660Y939800D01*
X802640Y972820D01*
X499110Y972820D02*
X449580Y1022350D01*
X293370Y1022350D01*
D25*
X293370Y1022350D03*
D21*
X499110Y972820D02*
X802640Y972820D01*
X1821180Y909320D02*
X1821180Y871220D01*
X1520190Y909320D02*
X1487170Y942340D01*
X1183640Y942340D01*
X1153160Y972820D01*
X855980Y972820D02*
X821690Y1007110D01*
X510540Y1007110D01*
X454660Y1062990D02*
X294640Y1062990D01*
D25*
X294640Y1062990D03*
D21*
X1520190Y909320D02*
X1821180Y909320D01*
X1153160Y972820D02*
X855980Y972820D01*
X510540Y1007110D02*
X454660Y1062990D01*
X701040Y1471930D02*
X701040Y1503680D01*
X461010Y1503680D02*
X422910Y1541780D01*
X290830Y1541780D01*
D25*
X290830Y1541780D03*
D21*
X461010Y1503680D02*
X701040Y1503680D01*
X988060Y1502410D02*
X988060Y1471930D01*
X750570Y1502410D02*
X718820Y1534160D01*
X476250Y1534160D01*
X429260Y1581150D02*
X290830Y1581150D01*
D25*
X290830Y1581150D03*
D21*
X750570Y1502410D02*
X988060Y1502410D01*
X476250Y1534160D02*
X429260Y1581150D01*
X1268730Y1503680D02*
X1268730Y1470660D01*
X1002030Y1532890D02*
X769620Y1532890D01*
X736600Y1565910D01*
X491490Y1565910D01*
X436880Y1620520D01*
X290830Y1620520D01*
D25*
X290830Y1620520D03*
D21*
X1031240Y1503680D02*
X1268730Y1503680D01*
X1031240Y1503680D02*
X1002030Y1532890D01*
X1546860Y1503680D02*
X1546860Y1470660D01*
X1315720Y1503680D02*
X1282700Y1536700D01*
X1043940Y1536700D01*
X1017270Y1563370D01*
X784860Y1563370D01*
X750570Y1597660D01*
X510540Y1597660D01*
X1315720Y1503680D02*
X1546860Y1503680D01*
X510540Y1597660D02*
X457200Y1651000D01*
D25*
X457200Y1651000D03*
D21*
X1826260Y1506220D02*
X1826260Y1473200D01*
X1590040Y1506220D02*
X1559560Y1536700D01*
X1330960Y1536700D01*
X1299210Y1568450D01*
X1060450Y1568450D01*
X1035050Y1593850D01*
X800100Y1593850D01*
X763270Y1630680D01*
X528320Y1630680D01*
X447040Y1711960D01*
D25*
X447040Y1711960D03*
D21*
X1590040Y1506220D02*
X1826260Y1506220D01*
D22*
X2702560Y585470D03*
D20*
X2211070Y585470D01*
X2189480Y563880D01*
X2189480Y420370D01*
X1992630Y420370D01*
D22*
X1992630Y420370D03*
X2711450Y568960D03*
D20*
X2219960Y568960D01*
X2209800Y558800D01*
X2209800Y403860D01*
X1998980Y403860D01*
D22*
X1998980Y403860D03*
D20*
X1977390Y1797050D02*
X1977390Y1827530D01*
X2028190Y1827530D01*
X2056130Y1799590D01*
X2202180Y1799590D01*
X2202180Y1644650D01*
X2457450Y1644650D01*
X2527300Y1574800D01*
X2653030Y1574800D01*
X2653030Y1395730D01*
X2627630Y1395730D01*
X1225550Y1701800D02*
X1225550Y1788160D01*
X1225550Y1701800D02*
X1346200Y1701800D01*
X1346200Y1780540D01*
D22*
X1464310Y1780540D03*
D20*
X1346200Y1780540D01*
X1075690Y868680D02*
X1075690Y778510D01*
X1159510Y778510D01*
D21*
X1056640Y741680D02*
X1056640Y702310D01*
X1070610Y688340D01*
D20*
X1421130Y777240D02*
X1421130Y867410D01*
X1421130Y777240D02*
X1504950Y777240D01*
D21*
X1403350Y740410D02*
X1403350Y701040D01*
X1421130Y683260D01*
D20*
X1770380Y777240D02*
X1770380Y871220D01*
X1770380Y777240D02*
X1850390Y777240D01*
D21*
X1750060Y739140D02*
X1750060Y701040D01*
X1766570Y684530D01*
D20*
X1762760Y461010D02*
X1762760Y373380D01*
X1845310Y373380D01*
D21*
X1743710Y336550D02*
X1743710Y298450D01*
X1758950Y283210D01*
D20*
X1479550Y370840D02*
X1479550Y463550D01*
X1479550Y370840D02*
X1562100Y370840D01*
D21*
X1460500Y336550D02*
X1460500Y294640D01*
X1471930Y283210D01*
D20*
X1201420Y373380D02*
X1201420Y468630D01*
X1201420Y373380D02*
X1278890Y373380D01*
D21*
X1174750Y336550D02*
X1174750Y300990D01*
X1193800Y281940D01*
D20*
X911860Y370840D02*
X911860Y466090D01*
X911860Y370840D02*
X991870Y370840D01*
X993140Y372110D01*
D21*
X891540Y336550D02*
X891540Y298450D01*
X909320Y280670D01*
D20*
X636270Y375920D02*
X636270Y466090D01*
X636270Y375920D02*
X717550Y375920D01*
D21*
X615950Y339090D02*
X615950Y302260D01*
X632460Y285750D01*
D20*
X353060Y370840D02*
X353060Y469900D01*
X353060Y370840D02*
X434340Y370840D01*
D21*
X332740Y335280D02*
X332740Y298450D01*
X351790Y279400D01*
X389890Y1440180D02*
X389890Y1471930D01*
X389890Y1440180D02*
X486410Y1440180D01*
X490220Y1443990D02*
X491490Y1445260D01*
D25*
X584200Y1443990D03*
D21*
X490220Y1443990D01*
X486410Y1440180D01*
X675640Y1437640D02*
X675640Y1471930D01*
X675640Y1437640D02*
X779780Y1437640D01*
X962660Y1437640D02*
X962660Y1471930D01*
X962660Y1437640D02*
X1062990Y1437640D01*
X1243330Y1437640D02*
X1243330Y1470660D01*
X1243330Y1437640D02*
X1346200Y1437640D01*
X1521460Y1437640D02*
X1521460Y1470660D01*
X1521460Y1437640D02*
X1624330Y1437640D01*
X1800860Y1441450D02*
X1800860Y1473200D01*
X1800860Y1441450D02*
X1896110Y1441450D01*
X741680Y872490D02*
X741680Y843280D01*
X847090Y843280D01*
X1657350Y1187450D02*
X1685290Y1215390D01*
X1657350Y1187450D02*
X1428750Y1187450D01*
X1391920Y1150620D01*
X1162050Y1150620D01*
X1132840Y1121410D01*
X892810Y1121410D01*
X859790Y1088390D01*
X741680Y1088390D01*
X741680Y1041400D01*
D25*
X741680Y1041400D03*
X1879600Y1215390D03*
D21*
X1685290Y1215390D01*
X1101090Y868680D02*
X1101090Y835660D01*
X1201420Y835660D01*
D25*
X1101090Y1013460D03*
D21*
X955370Y1629740D02*
X955370Y1761490D01*
X1315720Y1604010D02*
X1347470Y1572260D01*
X1572260Y1572260D01*
X1315720Y1604010D02*
X1074420Y1604010D01*
X1048690Y1629740D01*
X955370Y1629740D01*
X1607820Y1536700D02*
X1930400Y1536700D01*
X1607820Y1536700D02*
X1572260Y1572260D01*
X1447800Y1150620D02*
X1409700Y1112520D01*
X1176020Y1112520D01*
X1144270Y1080770D01*
X1101090Y1080770D01*
X1101090Y1013460D01*
X1930400Y1181100D02*
X1930400Y1536700D01*
X1930400Y1181100D02*
X1706880Y1181100D01*
X1676400Y1150620D01*
X1447800Y1150620D01*
X1446530Y867410D02*
X1446530Y834390D01*
X1550670Y834390D01*
X1330960Y1639570D02*
X1088390Y1639570D01*
X1330960Y1639570D02*
X1362710Y1607820D01*
X1587500Y1607820D01*
X1621790Y1573530D01*
X1965960Y1573530D01*
X1088390Y1639570D02*
X1061720Y1666240D01*
X1965960Y1573530D02*
X1965960Y1145540D01*
X1729740Y1145540D01*
X1701800Y1117600D01*
X1477010Y1117600D01*
X1446530Y1087120D01*
X1446530Y977900D01*
D25*
X1446530Y977900D03*
D21*
X1061720Y1666240D02*
X1005840Y1666240D01*
X1005370Y1666710D01*
X1005370Y1761490D01*
X1795780Y871220D02*
X1795780Y839470D01*
X1893570Y839470D01*
D25*
X1967230Y1110996D03*
D21*
X1796034Y1110996D01*
X1796034Y948944D01*
X1795780Y948690D01*
D25*
X1795780Y948690D03*
D21*
X1788160Y461010D02*
X1788160Y431800D01*
X1789430Y430530D01*
X1892300Y430530D01*
X1733550Y1715770D02*
X1689100Y1760220D01*
X1733550Y1715770D02*
X2062480Y1715770D01*
X2062480Y1714246D01*
D25*
X2062480Y1714246D03*
D21*
X1968500Y463550D02*
X1968500Y463296D01*
D25*
X1968500Y463296D03*
X2531110Y1750060D03*
D21*
X2631440Y1750060D01*
X2705100Y1676400D01*
X2705100Y723900D01*
X2653284Y672084D01*
X2171760Y672084D01*
X2139218Y639542D01*
D25*
X2139218Y639542D03*
X2138680Y463550D03*
D21*
X1968500Y463550D01*
X1504950Y463550D02*
X1504950Y430530D01*
X1601470Y430530D01*
X1676400Y483870D02*
X1691640Y499110D01*
X1676400Y483870D02*
X1676400Y430530D01*
D25*
X1676400Y430530D03*
X1639570Y1825244D03*
D21*
X1732026Y1825244D01*
X1770380Y1786890D01*
X2743200Y1689100D02*
X2743200Y711200D01*
X2667000Y635000D01*
X2192020Y635000D01*
X2139950Y582930D01*
X2139950Y499110D01*
X1691640Y499110D01*
X1770380Y1786890D02*
X1797050Y1786890D01*
D25*
X2571750Y1786890D03*
D21*
X2645410Y1786890D01*
X2743200Y1689100D01*
D25*
X1797050Y1786890D03*
D21*
X1226820Y468630D02*
X1226820Y433070D01*
X1310640Y433070D01*
X2100580Y530860D02*
X2100580Y1750060D01*
X2100580Y530860D02*
X1673860Y530860D01*
X1642110Y499110D01*
X1394460Y499110D01*
X1394460Y433070D01*
D25*
X1394460Y433070D03*
D21*
X1589100Y1760220D02*
X1589100Y1788160D01*
X1750060Y1750060D02*
X2100580Y1750060D01*
X1711960Y1788160D02*
X1589100Y1788160D01*
X1711960Y1788160D02*
X1750060Y1750060D01*
X937260Y466090D02*
X937260Y431546D01*
X1027176Y431546D02*
X1028700Y433070D01*
X1027176Y431546D02*
X937260Y431546D01*
X1539100Y1709420D02*
X1539100Y1760220D01*
X1539100Y1709420D02*
X1642110Y1709420D01*
X1675130Y1676400D01*
X2068830Y1676400D01*
X2068830Y561340D01*
X1658620Y561340D02*
X1625600Y528320D01*
X1303020Y528320D01*
X1276350Y501650D01*
X1117600Y501650D01*
X1117600Y431800D01*
D25*
X1117600Y431800D03*
D21*
X1658620Y561340D02*
X2068830Y561340D01*
X742950Y429260D02*
X661670Y429260D01*
X661670Y466090D01*
X1489100Y1677670D02*
X1489100Y1760220D01*
X1489100Y1677670D02*
X1623060Y1677670D01*
X1657350Y1643380D01*
X2037080Y1643380D01*
X2037080Y594360D01*
X1642110Y594360D01*
X1607820Y560070D01*
X1290320Y560070D01*
X1261110Y530860D01*
X953770Y530860D02*
X928370Y505460D01*
X838200Y505460D01*
X838200Y435610D01*
D25*
X838200Y435610D03*
D21*
X953770Y530860D02*
X1261110Y530860D01*
X378460Y469900D02*
X378460Y436880D01*
X488950Y436880D01*
X1638300Y1612900D02*
X1606360Y1644840D01*
X1638300Y1612900D02*
X2002790Y1612900D01*
X2002790Y626110D01*
X1625600Y626110D01*
X1591310Y591820D01*
X1276350Y591820D01*
X1245870Y561340D01*
X938530Y561340D01*
X911860Y534670D01*
X598170Y534670D01*
X568960Y505460D02*
X568960Y436880D01*
D25*
X568960Y436880D03*
D21*
X568960Y505460D02*
X598170Y534670D01*
X1439100Y1655890D02*
X1439100Y1760220D01*
X1439100Y1655890D02*
X1450340Y1644650D01*
X1606170Y1644650D01*
X1606360Y1644840D01*
D20*
X365760Y872490D02*
X365760Y782320D01*
X444500Y782320D01*
X342900Y782320D02*
X342900Y816610D01*
D22*
X2125980Y972820D03*
D20*
X2129790Y976630D01*
D22*
X2183130Y976630D03*
D20*
X2129790Y976630D01*
D21*
X391160Y872490D02*
X391160Y840740D01*
X487680Y840740D01*
X525780Y1714500D02*
X525780Y1854200D01*
X525780Y1714500D02*
X558800Y1681480D01*
D25*
X558800Y1681480D03*
X533400Y1409700D03*
D21*
X533400Y1295400D01*
D25*
X533400Y1295400D03*
D21*
X525780Y1854200D02*
X1104900Y1854200D01*
X1104900Y1671320D01*
X1389380Y1671320D01*
X1389380Y1759940D01*
X1389100Y1760220D01*
X341630Y745490D02*
X341630Y712470D01*
X360680Y693420D01*
D20*
X1250950Y1788160D02*
X1273810Y1788160D01*
X1273810Y1732280D01*
X2002790Y1797050D02*
X2019300Y1780540D01*
X2184400Y1780540D01*
X2184400Y1626870D01*
X2447290Y1626870D01*
X2578100Y1496060D01*
X1929130Y1821180D02*
X1916430Y1821180D01*
X1929130Y1821180D02*
X1929130Y1865630D01*
X2053590Y1865630D01*
X2081530Y1837690D01*
X2242820Y1837690D01*
X2242820Y1685290D01*
X2480310Y1685290D01*
X2548890Y1616710D01*
X2578100Y1616710D01*
D22*
X2578100Y1616710D03*
X2578100Y1549400D03*
D20*
X2578100Y1496060D01*
D26*
X2627630Y1446530D01*
D20*
X1200150Y1788160D02*
X1172210Y1788160D01*
X1172210Y1732280D01*
D27*
X2475230Y327660D03*
D28*
X2463800Y327660D01*
X2463800Y152400D01*
D27*
X2475230Y360680D03*
D28*
X2438400Y360680D01*
X2438400Y152400D01*
D27*
X2475230Y392430D03*
D28*
X2413000Y392430D01*
X2413000Y152400D01*
X2513330Y875030D02*
X2500630Y887730D01*
X2513330Y875030D02*
X2513330Y734060D01*
X2589530Y734060D01*
D27*
X2589530Y734060D03*
X2475230Y421640D03*
D28*
X2387600Y421640D01*
X2387600Y152400D01*
X2487930Y875030D02*
X2475230Y887730D01*
X2487930Y703580D02*
X2559050Y703580D01*
D27*
X2559050Y703580D03*
X2475230Y453390D03*
D28*
X2363470Y453390D01*
X2363470Y153670D01*
X2362200Y152400D01*
X2487930Y703580D02*
X2487930Y875030D01*
D27*
X2475230Y487680D03*
D28*
X2336800Y487680D01*
X2336800Y152400D01*
D27*
X2475230Y519430D03*
D28*
X2311400Y519430D01*
X2311400Y152400D01*
D27*
X2475230Y551180D03*
D28*
X2286000Y551180D01*
X2286000Y152400D01*
D27*
X2475230Y344170D03*
D28*
X2451100Y344170D01*
X2451100Y127000D01*
X2463800Y127000D01*
D27*
X2475230Y376682D03*
D29*
X2474722Y377190D01*
D28*
X2425700Y377190D01*
X2425700Y127000D01*
X2438400Y127000D01*
X2526030Y750570D02*
X2526030Y862330D01*
X2526030Y750570D02*
X2603500Y750570D01*
D27*
X2603500Y750570D03*
X2475230Y406400D03*
D28*
X2400300Y406400D01*
X2400300Y127000D01*
X2413000Y127000D01*
X2500630Y718820D02*
X2500630Y862330D01*
X2500630Y718820D02*
X2574290Y718820D01*
D27*
X2574290Y718820D03*
X2475230Y436880D03*
D28*
X2374900Y436880D01*
X2374900Y127000D01*
X2387600Y127000D01*
D27*
X2475230Y471170D03*
D28*
X2349500Y471170D01*
X2349500Y127000D01*
X2362200Y127000D01*
D27*
X2475230Y504190D03*
D28*
X2324100Y504190D02*
X2324100Y127000D01*
X2336800Y127000D01*
X2324100Y504190D02*
X2475230Y504190D01*
D27*
X2475230Y535940D03*
D28*
X2298700Y535940D01*
X2298700Y127000D01*
X2311400Y127000D01*
D20*
X1951990Y1797050D02*
X1951990Y1846580D01*
X2039620Y1846580D01*
X2068830Y1817370D02*
X2221230Y1817370D01*
X2221230Y1662430D01*
X2470150Y1662430D01*
X2537460Y1595120D01*
X2673350Y1595120D01*
X2673350Y1294130D01*
X2627630Y1294130D01*
X2068830Y1817370D02*
X2039620Y1846580D01*
X1838960Y1797050D02*
X1814830Y1821180D01*
X1838960Y1797050D02*
X1951990Y1797050D01*
M02*
