G04 EAGLE Gerber RS-274X export*
G75*
%MOMM*%
%FSLAX34Y34*%
%LPD*%
%INBottom Copper*%
%IPPOS*%
%AMOC8*
5,1,8,0,0,1.08239X$1,22.5*%
G01*
%ADD10R,1.358000X1.358000*%
%ADD11C,1.358000*%
%ADD12C,1.676400*%
%ADD13P,1.429621X8X22.500000*%
%ADD14R,2.100000X2.100000*%
%ADD15C,2.100000*%
%ADD16C,2.250000*%
%ADD17C,1.524000*%
%ADD18P,1.429621X8X202.500000*%
%ADD19P,1.649562X8X202.500000*%
%ADD20C,0.762000*%
%ADD21C,1.168400*%
%ADD22C,1.092200*%
%ADD23C,3.302000*%
%ADD24C,2.286000*%
%ADD25C,0.508000*%
%ADD26C,1.041400*%
%ADD27C,0.635000*%

G36*
X1993903Y10161D02*
X1993903Y10161D01*
X1993906Y10161D01*
X1994253Y10181D01*
X1994611Y10201D01*
X1994614Y10201D01*
X1994617Y10201D01*
X1994957Y10260D01*
X1995314Y10320D01*
X1995316Y10321D01*
X1995319Y10321D01*
X1995664Y10421D01*
X1995998Y10517D01*
X1996001Y10519D01*
X1996004Y10519D01*
X1996328Y10654D01*
X1996656Y10790D01*
X1996659Y10792D01*
X1996661Y10793D01*
X1996973Y10965D01*
X1997280Y11135D01*
X1997282Y11137D01*
X1997285Y11138D01*
X1997582Y11349D01*
X1997861Y11547D01*
X1997863Y11549D01*
X1997865Y11551D01*
X1998133Y11791D01*
X1998392Y12022D01*
X1998394Y12025D01*
X1998396Y12026D01*
X1998634Y12294D01*
X1998866Y12554D01*
X1998868Y12556D01*
X1998870Y12558D01*
X1999068Y12839D01*
X1999278Y13135D01*
X1999280Y13138D01*
X1999281Y13140D01*
X1999444Y13436D01*
X1999622Y13759D01*
X1999623Y13762D01*
X1999625Y13764D01*
X1999756Y14082D01*
X1999894Y14417D01*
X1999895Y14420D01*
X1999896Y14423D01*
X1999991Y14752D01*
X2000091Y15102D01*
X2000092Y15105D01*
X2000092Y15107D01*
X2000152Y15461D01*
X2000210Y15804D01*
X2000210Y15807D01*
X2000211Y15810D01*
X2000249Y16510D01*
X2000249Y215900D01*
X2000249Y215903D01*
X2000249Y215906D01*
X2000229Y216253D01*
X2000209Y216611D01*
X2000209Y216614D01*
X2000209Y216617D01*
X2000150Y216957D01*
X2000090Y217314D01*
X2000089Y217316D01*
X2000089Y217319D01*
X1999989Y217664D01*
X1999893Y217998D01*
X1999891Y218001D01*
X1999891Y218004D01*
X1999756Y218328D01*
X1999620Y218656D01*
X1999618Y218659D01*
X1999617Y218661D01*
X1999447Y218969D01*
X1999275Y219280D01*
X1999273Y219282D01*
X1999272Y219285D01*
X1999061Y219582D01*
X1998863Y219861D01*
X1998861Y219863D01*
X1998859Y219865D01*
X1998619Y220133D01*
X1998388Y220392D01*
X1998385Y220394D01*
X1998384Y220396D01*
X1998116Y220634D01*
X1997856Y220866D01*
X1997854Y220868D01*
X1997852Y220870D01*
X1997575Y221066D01*
X1997275Y221278D01*
X1997272Y221280D01*
X1997270Y221281D01*
X1996974Y221444D01*
X1996651Y221622D01*
X1996648Y221623D01*
X1996646Y221625D01*
X1996328Y221756D01*
X1995993Y221894D01*
X1995990Y221895D01*
X1995987Y221896D01*
X1995658Y221991D01*
X1995308Y222091D01*
X1995305Y222092D01*
X1995303Y222092D01*
X1994949Y222152D01*
X1994606Y222210D01*
X1994603Y222210D01*
X1994600Y222211D01*
X1993900Y222249D01*
X260349Y222249D01*
X260349Y1657351D01*
X393700Y1657351D01*
X393703Y1657351D01*
X393706Y1657351D01*
X394053Y1657371D01*
X394411Y1657391D01*
X394414Y1657391D01*
X394417Y1657391D01*
X394757Y1657450D01*
X395114Y1657510D01*
X395116Y1657511D01*
X395119Y1657511D01*
X395469Y1657613D01*
X395798Y1657707D01*
X395801Y1657709D01*
X395804Y1657709D01*
X396134Y1657847D01*
X396456Y1657980D01*
X396459Y1657982D01*
X396461Y1657983D01*
X396773Y1658155D01*
X397080Y1658325D01*
X397082Y1658327D01*
X397085Y1658328D01*
X397382Y1658539D01*
X397661Y1658738D01*
X397663Y1658739D01*
X397665Y1658741D01*
X397933Y1658981D01*
X398192Y1659212D01*
X398194Y1659215D01*
X398196Y1659216D01*
X398434Y1659484D01*
X398666Y1659744D01*
X398668Y1659746D01*
X398670Y1659748D01*
X398868Y1660029D01*
X399078Y1660325D01*
X399080Y1660328D01*
X399081Y1660330D01*
X399244Y1660626D01*
X399422Y1660949D01*
X399423Y1660952D01*
X399425Y1660954D01*
X399556Y1661272D01*
X399694Y1661607D01*
X399695Y1661610D01*
X399696Y1661613D01*
X399789Y1661937D01*
X399891Y1662292D01*
X399892Y1662295D01*
X399892Y1662298D01*
X399951Y1662648D01*
X400010Y1662994D01*
X400010Y1662997D01*
X400011Y1663000D01*
X400049Y1663700D01*
X400049Y1883490D01*
X400049Y1883493D01*
X400049Y1883496D01*
X400029Y1883842D01*
X400009Y1884201D01*
X400009Y1884204D01*
X400009Y1884207D01*
X399951Y1884544D01*
X399890Y1884904D01*
X399889Y1884906D01*
X399889Y1884909D01*
X399789Y1885254D01*
X399693Y1885588D01*
X399691Y1885591D01*
X399691Y1885594D01*
X399556Y1885918D01*
X399420Y1886246D01*
X399418Y1886249D01*
X399417Y1886251D01*
X399249Y1886555D01*
X399075Y1886870D01*
X399073Y1886872D01*
X399072Y1886875D01*
X398873Y1887155D01*
X398662Y1887451D01*
X398661Y1887453D01*
X398659Y1887455D01*
X398419Y1887723D01*
X398188Y1887982D01*
X398185Y1887984D01*
X398184Y1887986D01*
X397916Y1888224D01*
X397656Y1888456D01*
X397654Y1888458D01*
X397652Y1888460D01*
X397363Y1888664D01*
X397075Y1888868D01*
X397072Y1888869D01*
X397070Y1888871D01*
X396766Y1889039D01*
X396451Y1889212D01*
X396448Y1889213D01*
X396446Y1889215D01*
X396128Y1889346D01*
X395793Y1889484D01*
X395790Y1889485D01*
X395787Y1889486D01*
X395458Y1889581D01*
X395108Y1889681D01*
X395105Y1889682D01*
X395102Y1889682D01*
X394749Y1889742D01*
X394406Y1889800D01*
X394403Y1889800D01*
X394400Y1889801D01*
X393700Y1889839D01*
X100000Y1889839D01*
X99864Y1889832D01*
X99723Y1889833D01*
X92446Y1889516D01*
X92382Y1889509D01*
X92317Y1889509D01*
X92015Y1889472D01*
X91738Y1889445D01*
X91680Y1889432D01*
X91621Y1889425D01*
X77289Y1886898D01*
X77091Y1886852D01*
X76891Y1886815D01*
X76742Y1886769D01*
X76595Y1886735D01*
X76413Y1886670D01*
X76220Y1886612D01*
X62544Y1881634D01*
X62357Y1881554D01*
X62166Y1881483D01*
X62028Y1881413D01*
X61889Y1881353D01*
X61721Y1881257D01*
X61541Y1881166D01*
X48937Y1873890D01*
X48767Y1873778D01*
X48592Y1873675D01*
X48467Y1873582D01*
X48341Y1873499D01*
X48192Y1873376D01*
X48031Y1873255D01*
X36882Y1863900D01*
X36734Y1863761D01*
X36579Y1863629D01*
X36473Y1863516D01*
X36363Y1863412D01*
X36237Y1863264D01*
X36100Y1863118D01*
X26745Y1851969D01*
X26623Y1851806D01*
X26494Y1851649D01*
X26409Y1851519D01*
X26319Y1851399D01*
X26221Y1851231D01*
X26110Y1851063D01*
X18834Y1838459D01*
X18742Y1838277D01*
X18642Y1838100D01*
X18581Y1837958D01*
X18513Y1837823D01*
X18445Y1837641D01*
X18366Y1837456D01*
X13388Y1823780D01*
X13330Y1823586D01*
X13262Y1823394D01*
X13226Y1823243D01*
X13183Y1823098D01*
X13148Y1822907D01*
X13102Y1822711D01*
X10575Y1808379D01*
X10567Y1808315D01*
X10554Y1808251D01*
X10524Y1807947D01*
X10491Y1807672D01*
X10490Y1807613D01*
X10484Y1807554D01*
X10167Y1800277D01*
X10168Y1800140D01*
X10161Y1800000D01*
X10161Y100000D01*
X10168Y99864D01*
X10167Y99723D01*
X10484Y92446D01*
X10491Y92382D01*
X10491Y92317D01*
X10515Y92117D01*
X10523Y91984D01*
X10542Y91875D01*
X10555Y91738D01*
X10568Y91680D01*
X10575Y91621D01*
X13102Y77289D01*
X13148Y77091D01*
X13185Y76891D01*
X13231Y76742D01*
X13265Y76595D01*
X13330Y76413D01*
X13388Y76220D01*
X18366Y62544D01*
X18446Y62357D01*
X18517Y62166D01*
X18587Y62028D01*
X18647Y61889D01*
X18743Y61721D01*
X18834Y61541D01*
X26110Y48937D01*
X26222Y48767D01*
X26325Y48592D01*
X26418Y48468D01*
X26501Y48341D01*
X26624Y48192D01*
X26745Y48031D01*
X36100Y36882D01*
X36239Y36734D01*
X36371Y36579D01*
X36484Y36473D01*
X36588Y36363D01*
X36735Y36238D01*
X36882Y36100D01*
X48031Y26745D01*
X48194Y26623D01*
X48351Y26494D01*
X48481Y26409D01*
X48601Y26319D01*
X48769Y26221D01*
X48937Y26110D01*
X61541Y18834D01*
X61723Y18742D01*
X61900Y18642D01*
X62042Y18581D01*
X62177Y18513D01*
X62359Y18445D01*
X62544Y18366D01*
X76220Y13388D01*
X76414Y13330D01*
X76606Y13262D01*
X76757Y13226D01*
X76902Y13183D01*
X77093Y13148D01*
X77289Y13102D01*
X91621Y10575D01*
X91685Y10567D01*
X91749Y10554D01*
X92053Y10524D01*
X92328Y10491D01*
X92387Y10490D01*
X92446Y10484D01*
X99723Y10167D01*
X99860Y10168D01*
X100000Y10161D01*
X1993900Y10161D01*
X1993903Y10161D01*
G37*
%LPC*%
G36*
X95551Y1774844D02*
X95551Y1774844D01*
X88897Y1776627D01*
X82932Y1780071D01*
X78061Y1784942D01*
X74617Y1790907D01*
X72834Y1797561D01*
X72834Y1804449D01*
X74617Y1811103D01*
X78061Y1817068D01*
X82932Y1821939D01*
X88897Y1825383D01*
X95551Y1827166D01*
X102439Y1827166D01*
X109093Y1825383D01*
X115058Y1821939D01*
X119929Y1817068D01*
X123373Y1811103D01*
X125156Y1804449D01*
X125156Y1797561D01*
X123373Y1790907D01*
X119929Y1784942D01*
X115058Y1780071D01*
X109093Y1776627D01*
X102439Y1774844D01*
X95551Y1774844D01*
G37*
%LPD*%
%LPC*%
G36*
X1396507Y73839D02*
X1396507Y73839D01*
X1389853Y75622D01*
X1383888Y79066D01*
X1379017Y83937D01*
X1375573Y89902D01*
X1373790Y96556D01*
X1373790Y103444D01*
X1375573Y110098D01*
X1379017Y116063D01*
X1383888Y120934D01*
X1389853Y124378D01*
X1396507Y126161D01*
X1403395Y126161D01*
X1410049Y124378D01*
X1416014Y120934D01*
X1420885Y116063D01*
X1424329Y110098D01*
X1426112Y103444D01*
X1426112Y96556D01*
X1424329Y89902D01*
X1420885Y83937D01*
X1416014Y79066D01*
X1410049Y75622D01*
X1403395Y73839D01*
X1396507Y73839D01*
G37*
%LPD*%
%LPC*%
G36*
X95551Y72834D02*
X95551Y72834D01*
X88897Y74617D01*
X82932Y78061D01*
X78061Y82932D01*
X74617Y88897D01*
X72834Y95551D01*
X72834Y102439D01*
X74617Y109093D01*
X78061Y115058D01*
X82932Y119929D01*
X88897Y123373D01*
X95551Y125156D01*
X102439Y125156D01*
X109093Y123373D01*
X115058Y119929D01*
X119929Y115058D01*
X123373Y109093D01*
X125156Y102439D01*
X125156Y95551D01*
X123373Y88897D01*
X119929Y82932D01*
X115058Y78061D01*
X109093Y74617D01*
X102439Y72834D01*
X95551Y72834D01*
G37*
%LPD*%
%LPC*%
G36*
X96556Y923869D02*
X96556Y923869D01*
X89902Y925652D01*
X83937Y929096D01*
X79066Y933967D01*
X75622Y939932D01*
X73839Y946586D01*
X73839Y953474D01*
X75622Y960128D01*
X79066Y966093D01*
X83937Y970964D01*
X89902Y974408D01*
X96556Y976191D01*
X103444Y976191D01*
X110098Y974408D01*
X116063Y970964D01*
X120934Y966093D01*
X124378Y960128D01*
X126161Y953474D01*
X126161Y946586D01*
X124378Y939932D01*
X120934Y933967D01*
X116063Y929096D01*
X110098Y925652D01*
X103444Y923869D01*
X96556Y923869D01*
G37*
%LPD*%
%LPC*%
G36*
X234479Y1748715D02*
X234479Y1748715D01*
X229784Y1750660D01*
X226190Y1754254D01*
X224245Y1758949D01*
X224245Y1764031D01*
X226190Y1768726D01*
X229784Y1772320D01*
X234479Y1774265D01*
X239561Y1774265D01*
X244256Y1772320D01*
X247850Y1768726D01*
X249795Y1764031D01*
X249795Y1758949D01*
X247850Y1754254D01*
X244256Y1750660D01*
X239561Y1748715D01*
X234479Y1748715D01*
G37*
%LPD*%
%LPC*%
G36*
X293369Y1767839D02*
X293369Y1767839D01*
X293369Y1773748D01*
X294698Y1772981D01*
X296132Y1771881D01*
X297411Y1770602D01*
X298511Y1769168D01*
X299278Y1767839D01*
X293369Y1767839D01*
G37*
%LPD*%
%LPC*%
G36*
X293369Y1755141D02*
X293369Y1755141D01*
X299278Y1755141D01*
X298511Y1753812D01*
X297411Y1752378D01*
X296132Y1751099D01*
X294698Y1749999D01*
X293369Y1749232D01*
X293369Y1755141D01*
G37*
%LPD*%
%LPC*%
G36*
X274762Y1767839D02*
X274762Y1767839D01*
X275529Y1769168D01*
X276629Y1770602D01*
X277908Y1771881D01*
X279342Y1772981D01*
X280671Y1773748D01*
X280671Y1767839D01*
X274762Y1767839D01*
G37*
%LPD*%
%LPC*%
G36*
X279342Y1749999D02*
X279342Y1749999D01*
X277908Y1751099D01*
X276629Y1752378D01*
X275529Y1753812D01*
X274762Y1755141D01*
X280671Y1755141D01*
X280671Y1749232D01*
X279342Y1749999D01*
G37*
%LPD*%
D10*
X2627630Y1548130D03*
D11*
X2627630Y1522730D03*
X2627630Y1497330D03*
X2627630Y1471930D03*
X2627630Y1446530D03*
X2627630Y1421130D03*
X2627630Y1395730D03*
X2627630Y1370330D03*
X2627630Y1319530D03*
X2627630Y1294130D03*
X2627630Y1268730D03*
X2627630Y1243330D03*
X2627630Y1217930D03*
X2627630Y1192530D03*
X2627630Y1167130D03*
X2627630Y1141730D03*
X2627630Y1090930D03*
X2627630Y1065530D03*
X2627630Y1040130D03*
X2627630Y1014730D03*
X2627630Y989330D03*
X2627630Y963930D03*
X2627630Y941070D03*
X2627630Y915670D03*
X2576830Y862330D03*
X2576830Y887730D03*
X2551430Y862330D03*
X2551430Y887730D03*
X2526030Y862330D03*
X2526030Y887730D03*
X2500630Y862330D03*
X2500630Y887730D03*
X2475230Y887730D03*
X2475230Y862330D03*
X2449830Y887730D03*
X2449830Y862330D03*
X2424430Y887730D03*
X2424430Y862330D03*
X2399030Y887730D03*
X2399030Y862330D03*
X2373630Y887730D03*
X2373630Y862330D03*
X2348230Y887730D03*
X2348230Y862330D03*
X2322830Y887730D03*
X2322830Y862330D03*
X2297430Y887730D03*
X2297430Y862330D03*
X2272030Y887730D03*
X2272030Y862330D03*
X2246630Y887730D03*
X2246630Y862330D03*
X2221230Y887730D03*
X2221230Y862330D03*
X2195830Y887730D03*
X2195830Y862330D03*
X2170430Y887730D03*
X2170430Y862330D03*
X2145030Y887730D03*
X2145030Y862330D03*
X2145030Y963930D03*
X2145030Y989330D03*
X2145030Y1014730D03*
X2145030Y1040130D03*
X2145030Y1065530D03*
X2145030Y1090930D03*
X2145030Y1116330D03*
X2145030Y1141730D03*
X2145030Y1192530D03*
X2145030Y1217930D03*
X2145030Y1243330D03*
X2145030Y1268730D03*
X2145030Y1294130D03*
X2145030Y1319530D03*
X2145030Y1344930D03*
X2145030Y1370330D03*
X2145030Y1410970D03*
X2145030Y1436370D03*
X2145030Y1461770D03*
X2145030Y1487170D03*
X2145030Y1512570D03*
X2145030Y1537970D03*
X2145030Y1563370D03*
X2145030Y1588770D03*
X2145030Y1614170D03*
X2145030Y1639570D03*
D12*
X491490Y1445260D03*
X491490Y1343660D03*
X1893570Y839470D03*
X1893570Y737870D03*
X1892300Y430530D03*
X1892300Y328930D03*
X1601470Y430530D03*
X1601470Y328930D03*
X1310640Y433070D03*
X1310640Y331470D03*
X1028700Y433070D03*
X1028700Y331470D03*
X742950Y429260D03*
X742950Y327660D03*
X488950Y436880D03*
X488950Y335280D03*
X779780Y1437640D03*
X779780Y1336040D03*
X1062990Y1437640D03*
X1062990Y1336040D03*
X1346200Y1437640D03*
X1346200Y1336040D03*
X1624330Y1437640D03*
X1624330Y1336040D03*
X1896110Y1441450D03*
X1896110Y1339850D03*
X847090Y843280D03*
X847090Y741680D03*
X1201420Y835660D03*
X1201420Y734060D03*
X1550670Y834390D03*
X1550670Y732790D03*
D13*
X356870Y1288415D03*
X382270Y1288415D03*
X1766570Y684530D03*
X1791970Y684530D03*
X1758950Y283210D03*
X1784350Y283210D03*
X1471930Y283210D03*
X1497330Y283210D03*
X1193800Y281940D03*
X1219200Y281940D03*
X909320Y280670D03*
X934720Y280670D03*
X632460Y285750D03*
X657860Y285750D03*
X351790Y279400D03*
X377190Y279400D03*
X646430Y1287145D03*
X671830Y1287145D03*
X935990Y1288415D03*
X961390Y1288415D03*
X1214120Y1288415D03*
X1239520Y1288415D03*
X1494790Y1287145D03*
X1520190Y1287145D03*
X1765300Y1283335D03*
X1790700Y1283335D03*
X712470Y693420D03*
X737870Y693420D03*
X1070610Y688340D03*
X1096010Y688340D03*
X1421130Y683260D03*
X1446530Y683260D03*
D14*
X1055370Y1761490D03*
D15*
X1005370Y1761490D03*
X955370Y1761490D03*
X905370Y1761490D03*
X855370Y1761490D03*
X805370Y1761490D03*
X755370Y1761490D03*
X705370Y1761490D03*
X655370Y1761490D03*
X605370Y1761490D03*
D16*
X287020Y1761490D03*
X237020Y1761490D03*
D17*
X364490Y1479550D02*
X364490Y1464310D01*
X389890Y1464310D02*
X389890Y1479550D01*
X415290Y1479550D02*
X415290Y1464310D01*
X1770380Y878840D02*
X1770380Y863600D01*
X1795780Y863600D02*
X1795780Y878840D01*
X1821180Y878840D02*
X1821180Y863600D01*
X1762760Y468630D02*
X1762760Y453390D01*
X1788160Y453390D02*
X1788160Y468630D01*
X1813560Y468630D02*
X1813560Y453390D01*
X1479550Y455930D02*
X1479550Y471170D01*
X1504950Y471170D02*
X1504950Y455930D01*
X1530350Y455930D02*
X1530350Y471170D01*
X1201420Y476250D02*
X1201420Y461010D01*
X1226820Y461010D02*
X1226820Y476250D01*
X1252220Y476250D02*
X1252220Y461010D01*
X911860Y458470D02*
X911860Y473710D01*
X937260Y473710D02*
X937260Y458470D01*
X962660Y458470D02*
X962660Y473710D01*
X636270Y473710D02*
X636270Y458470D01*
X661670Y458470D02*
X661670Y473710D01*
X687070Y473710D02*
X687070Y458470D01*
X353060Y462280D02*
X353060Y477520D01*
X378460Y477520D02*
X378460Y462280D01*
X403860Y462280D02*
X403860Y477520D01*
X650240Y1464310D02*
X650240Y1479550D01*
X675640Y1479550D02*
X675640Y1464310D01*
X701040Y1464310D02*
X701040Y1479550D01*
X937260Y1479550D02*
X937260Y1464310D01*
X962660Y1464310D02*
X962660Y1479550D01*
X988060Y1479550D02*
X988060Y1464310D01*
X1217930Y1463040D02*
X1217930Y1478280D01*
X1243330Y1478280D02*
X1243330Y1463040D01*
X1268730Y1463040D02*
X1268730Y1478280D01*
X1496060Y1478280D02*
X1496060Y1463040D01*
X1521460Y1463040D02*
X1521460Y1478280D01*
X1546860Y1478280D02*
X1546860Y1463040D01*
X1775460Y1465580D02*
X1775460Y1480820D01*
X1800860Y1480820D02*
X1800860Y1465580D01*
X1826260Y1465580D02*
X1826260Y1480820D01*
X716280Y880110D02*
X716280Y864870D01*
X741680Y864870D02*
X741680Y880110D01*
X767080Y880110D02*
X767080Y864870D01*
X1075690Y861060D02*
X1075690Y876300D01*
X1101090Y876300D02*
X1101090Y861060D01*
X1126490Y861060D02*
X1126490Y876300D01*
X1421130Y875030D02*
X1421130Y859790D01*
X1446530Y859790D02*
X1446530Y875030D01*
X1471930Y875030D02*
X1471930Y859790D01*
D13*
X341630Y1417320D03*
X443230Y1417320D03*
X1197610Y1416050D03*
X1299210Y1416050D03*
X1197610Y1381760D03*
X1299210Y1381760D03*
X1196340Y1344930D03*
X1297940Y1344930D03*
X1477010Y1414780D03*
X1578610Y1414780D03*
X1477010Y1379220D03*
X1578610Y1379220D03*
X1478280Y1341120D03*
X1579880Y1341120D03*
X1756410Y1418590D03*
X1858010Y1418590D03*
X1756410Y1379220D03*
X1858010Y1379220D03*
X1756410Y1342390D03*
X1858010Y1342390D03*
X695960Y821690D03*
X797560Y821690D03*
X341630Y1379220D03*
X443230Y1379220D03*
X695960Y782320D03*
X797560Y782320D03*
X694690Y745490D03*
X796290Y745490D03*
X1057910Y810260D03*
X1159510Y810260D03*
X1057910Y778510D03*
X1159510Y778510D03*
X1056640Y741680D03*
X1158240Y741680D03*
X1403350Y810260D03*
X1504950Y810260D03*
X1403350Y777240D03*
X1504950Y777240D03*
X1403350Y740410D03*
X1504950Y740410D03*
X1748790Y812800D03*
X1850390Y812800D03*
X1748790Y777240D03*
X1850390Y777240D03*
X342900Y1343660D03*
X444500Y1343660D03*
X1750060Y739140D03*
X1851660Y739140D03*
X1743710Y408940D03*
X1845310Y408940D03*
X1743710Y373380D03*
X1845310Y373380D03*
X1743710Y336550D03*
X1845310Y336550D03*
X1460500Y403860D03*
X1562100Y403860D03*
X1460500Y370840D03*
X1562100Y370840D03*
X1460500Y336550D03*
X1562100Y336550D03*
X1176020Y411480D03*
X1277620Y411480D03*
X1177290Y373380D03*
X1278890Y373380D03*
X1174750Y336550D03*
X1276350Y336550D03*
X632460Y1413510D03*
X734060Y1413510D03*
X891540Y406400D03*
X993140Y406400D03*
X891540Y372110D03*
X993140Y372110D03*
X891540Y336550D03*
X993140Y336550D03*
X615950Y406400D03*
X717550Y406400D03*
X615950Y375920D03*
X717550Y375920D03*
X615950Y339090D03*
X717550Y339090D03*
X332740Y407670D03*
X434340Y407670D03*
X332740Y370840D03*
X434340Y370840D03*
X332740Y335280D03*
X434340Y335280D03*
X631190Y1376680D03*
X732790Y1376680D03*
X631190Y1339850D03*
X732790Y1339850D03*
X916940Y1414780D03*
X1018540Y1414780D03*
X916940Y1380490D03*
X1018540Y1380490D03*
X915670Y1343660D03*
X1017270Y1343660D03*
X342900Y782320D03*
X444500Y782320D03*
X342900Y816610D03*
X444500Y816610D03*
X341630Y745490D03*
X443230Y745490D03*
D17*
X365760Y864870D02*
X365760Y880110D01*
X391160Y880110D02*
X391160Y864870D01*
X416560Y864870D02*
X416560Y880110D01*
D13*
X360680Y693420D03*
X386080Y693420D03*
D12*
X487680Y840740D03*
X487680Y739140D03*
D14*
X1689100Y1760220D03*
D15*
X1639100Y1760220D03*
X1589100Y1760220D03*
X1539100Y1760220D03*
X1489100Y1760220D03*
X1439100Y1760220D03*
X1389100Y1760220D03*
D17*
X1250950Y1780540D02*
X1250950Y1795780D01*
X1225550Y1795780D02*
X1225550Y1780540D01*
X1200150Y1780540D02*
X1200150Y1795780D01*
D18*
X1273810Y1732280D03*
X1172210Y1732280D03*
D17*
X419100Y1783080D02*
X419100Y1798320D01*
X444500Y1798320D02*
X444500Y1783080D01*
X469900Y1783080D02*
X469900Y1798320D01*
D19*
X2463800Y127000D03*
X2438400Y127000D03*
X2413000Y127000D03*
X2387600Y127000D03*
X2362200Y127000D03*
X2336800Y127000D03*
X2311400Y127000D03*
X2286000Y127000D03*
X2260600Y127000D03*
X2235200Y127000D03*
X2209800Y127000D03*
X2184400Y127000D03*
X2159000Y127000D03*
X2133600Y127000D03*
X2108200Y127000D03*
X2082800Y127000D03*
X2057400Y127000D03*
X2032000Y127000D03*
X2463800Y152400D03*
X2438400Y152400D03*
X2413000Y152400D03*
X2387600Y152400D03*
X2362200Y152400D03*
X2336800Y152400D03*
X2311400Y152400D03*
X2286000Y152400D03*
X2260600Y152400D03*
X2235200Y152400D03*
X2209800Y152400D03*
X2184400Y152400D03*
X2159000Y152400D03*
X2133600Y152400D03*
X2108200Y152400D03*
X2082800Y152400D03*
X2057400Y152400D03*
X2032000Y152400D03*
D17*
X2002790Y1789430D02*
X2002790Y1804670D01*
X1977390Y1804670D02*
X1977390Y1789430D01*
X1951990Y1789430D02*
X1951990Y1804670D01*
D18*
X1916430Y1821180D03*
X1814830Y1821180D03*
D20*
X1494790Y1115060D02*
X1247140Y1115060D01*
X1163320Y1198880D01*
X584200Y1198880D01*
X584200Y1376680D01*
X631190Y1376680D01*
X1494790Y1115060D02*
X1555750Y1054100D01*
X1878330Y1054100D02*
X1915160Y1017270D01*
X1878330Y1054100D02*
X1555750Y1054100D01*
X2016760Y1017270D02*
X2061210Y1061720D01*
X2061210Y1436370D01*
X2145030Y1436370D01*
X2016760Y1017270D02*
X1915160Y1017270D01*
X1565910Y1071880D02*
X1502410Y1135380D01*
X1252220Y1135380D01*
X1170940Y1216660D01*
X876300Y1216660D01*
X876300Y1380490D01*
X916940Y1380490D01*
X1565910Y1071880D02*
X1887220Y1071880D01*
X1927225Y1031875D01*
X2005965Y1031875D01*
X2044700Y1070610D01*
X2044700Y1461770D01*
X2145030Y1461770D01*
X1577340Y1089660D02*
X1513840Y1153160D01*
X1258570Y1153160D01*
X1155700Y1256030D01*
X1155700Y1381760D01*
X1197610Y1381760D01*
X1577340Y1089660D02*
X1894840Y1089660D01*
X1936750Y1047750D01*
X1997710Y1047750D01*
X2028190Y1078230D01*
X2028190Y1487170D01*
X2145030Y1487170D01*
X1588770Y1104900D02*
X1522730Y1170940D01*
X1422400Y1170940D01*
X1422400Y1379220D01*
X1477010Y1379220D01*
X1588770Y1104900D02*
X1903730Y1104900D01*
X1944370Y1064260D01*
X1988820Y1064260D01*
X2011680Y1087120D01*
X2011680Y1512570D01*
X2145030Y1512570D01*
X1701800Y1379220D02*
X1701800Y1121410D01*
X1701800Y1379220D02*
X1756410Y1379220D01*
X1911350Y1121410D02*
X1953895Y1078865D01*
X1911350Y1121410D02*
X1701800Y1121410D01*
X1953895Y1078865D02*
X1980565Y1078865D01*
X1995170Y1093470D02*
X1995170Y1550670D01*
X1995170Y1093470D02*
X1980565Y1078865D01*
X1995170Y1550670D02*
X2184400Y1550670D01*
X2184400Y1268730D01*
X2145030Y1268730D01*
X1860550Y1021080D02*
X1535430Y1021080D01*
X1477010Y1079500D01*
X660400Y1079500D01*
X660400Y821690D01*
X695960Y821690D01*
X1860550Y1021080D02*
X1893570Y988060D01*
X2033270Y988060D02*
X2091690Y1046480D01*
X2091690Y1370330D01*
X2145030Y1370330D01*
X2033270Y988060D02*
X1893570Y988060D01*
X1521460Y1005840D02*
X1465580Y1061720D01*
X1016000Y1061720D02*
X1016000Y810260D01*
X1057910Y810260D01*
X1016000Y1061720D02*
X1465580Y1061720D01*
X1521460Y1005840D02*
X1851660Y1005840D01*
X1885950Y971550D01*
X2038350Y971550D02*
X2108200Y1041400D01*
X2108200Y1344930D01*
X2145030Y1344930D01*
X2038350Y971550D02*
X1885950Y971550D01*
X1842770Y990600D02*
X1510030Y990600D01*
X1456690Y1043940D01*
X1346200Y1043940D01*
X1346200Y816610D01*
X1352550Y810260D01*
X1403350Y810260D01*
X1842770Y990600D02*
X1878330Y955040D01*
X2048510Y955040D02*
X2123440Y1029970D01*
X2123440Y1319530D01*
X2145030Y1319530D01*
X2048510Y955040D02*
X1878330Y955040D01*
X1727200Y974090D02*
X1727200Y812800D01*
X1748790Y812800D01*
X1727200Y974090D02*
X1832610Y974090D01*
X1866900Y939800D01*
X2070100Y939800D01*
X2123440Y993140D01*
D21*
X2123440Y993140D03*
D20*
X1963420Y516890D02*
X1714500Y516890D01*
X1714500Y408940D01*
X1743710Y408940D01*
X1963420Y516890D02*
X2070100Y623570D01*
X2070100Y711200D01*
X2125980Y711200D01*
D21*
X2125980Y711200D03*
D20*
X1953260Y534670D02*
X1435100Y534670D01*
X1435100Y402590D01*
X1459230Y402590D01*
X1460500Y403860D01*
X1953260Y534670D02*
X2047240Y628650D01*
X2047240Y732790D01*
X2125980Y732790D01*
D21*
X2125980Y732790D03*
D20*
X1939290Y551180D02*
X1155700Y551180D01*
X1155700Y411480D01*
X1176020Y411480D01*
X1939290Y551180D02*
X2026920Y638810D01*
X2026920Y754380D01*
X2125980Y754380D01*
D21*
X2125980Y754380D03*
D20*
X1927860Y567690D02*
X873760Y567690D01*
X873760Y405130D01*
X890270Y405130D01*
X891540Y406400D01*
X1927860Y567690D02*
X2006600Y646430D01*
X2006600Y775970D01*
X2125980Y775970D01*
D21*
X2125980Y775970D03*
D20*
X1917700Y588010D02*
X601980Y588010D01*
X601980Y406400D01*
X615950Y406400D01*
X1917700Y588010D02*
X1986280Y656590D01*
X1986280Y800100D01*
X2125980Y800100D01*
D21*
X2125980Y800100D03*
D20*
X1485900Y1097280D02*
X1240790Y1097280D01*
X1156970Y1181100D02*
X566420Y1181100D01*
X566420Y1333500D01*
X520700Y1333500D01*
X444500Y1257300D02*
X304800Y1257300D01*
X304800Y1379220D01*
X341630Y1379220D01*
X1485900Y1097280D02*
X1546860Y1036320D01*
X1240790Y1097280D02*
X1156970Y1181100D01*
X520700Y1333500D02*
X444500Y1257300D01*
X1546860Y1036320D02*
X1870710Y1036320D01*
X1905000Y1002030D01*
X2024380Y1002030D02*
X2076450Y1054100D01*
X2076450Y1410970D01*
X2145030Y1410970D01*
X2024380Y1002030D02*
X1905000Y1002030D01*
X1905000Y604520D02*
X304800Y604520D01*
X304800Y407670D01*
X332740Y407670D01*
X1905000Y604520D02*
X1963420Y662940D01*
X1963420Y822960D01*
X2125980Y822960D01*
D21*
X2125980Y822960D03*
D22*
X2183130Y929640D03*
D20*
X2594610Y929640D01*
X2594610Y1040130D01*
X2627630Y1040130D01*
X2627630Y1370330D02*
X2717800Y1370330D01*
X2717800Y627380D01*
X2692400Y601980D01*
D21*
X2692400Y601980D03*
D20*
X415290Y1417320D02*
X415290Y1471930D01*
X415290Y1417320D02*
X443230Y1417320D01*
X701040Y1413510D02*
X701040Y1471930D01*
X701040Y1413510D02*
X734060Y1413510D01*
X988060Y1414780D02*
X988060Y1471930D01*
X988060Y1414780D02*
X1018540Y1414780D01*
X1268730Y1416050D02*
X1268730Y1470660D01*
X1268730Y1416050D02*
X1299210Y1416050D01*
X1546860Y1414780D02*
X1546860Y1470660D01*
X1546860Y1414780D02*
X1578610Y1414780D01*
X1826260Y1418590D02*
X1826260Y1473200D01*
X1826260Y1418590D02*
X1858010Y1418590D01*
X1821180Y871220D02*
X1821180Y812800D01*
X1850390Y812800D01*
X1471930Y816610D02*
X1471930Y867410D01*
X1471930Y816610D02*
X1478280Y810260D01*
X1504950Y810260D01*
X1126490Y810260D02*
X1126490Y868680D01*
X1126490Y810260D02*
X1159510Y810260D01*
X767080Y821690D02*
X767080Y872490D01*
X767080Y821690D02*
X797560Y821690D01*
X416560Y816610D02*
X416560Y872490D01*
X416560Y816610D02*
X444500Y816610D01*
X403860Y469900D02*
X403860Y407670D01*
X434340Y407670D01*
X687070Y406400D02*
X687070Y466090D01*
X687070Y406400D02*
X717550Y406400D01*
X962660Y406400D02*
X962660Y466090D01*
X962660Y406400D02*
X993140Y406400D01*
X1252220Y411480D02*
X1252220Y468630D01*
X1252220Y411480D02*
X1277620Y411480D01*
X1530350Y403860D02*
X1530350Y463550D01*
X1530350Y403860D02*
X1562100Y403860D01*
X1813560Y408940D02*
X1813560Y461010D01*
X1813560Y408940D02*
X1845310Y408940D01*
D23*
X289560Y1503680D03*
D24*
X205740Y1503680D01*
D23*
X294640Y904240D03*
D24*
X193040Y904240D01*
D23*
X525780Y247650D03*
D24*
X525780Y146050D01*
D23*
X783590Y245110D03*
D24*
X783590Y146050D01*
D23*
X1064514Y248920D03*
D24*
X1064514Y142494D01*
D23*
X1347470Y245110D03*
D24*
X1347470Y144780D01*
D23*
X1640840Y245110D03*
D24*
X1640840Y139700D01*
D23*
X1930400Y247650D03*
D24*
X1930400Y130810D01*
D23*
X294640Y943610D03*
D24*
X196850Y943610D01*
D23*
X294640Y982980D03*
D24*
X193040Y982980D01*
D23*
X293370Y1022350D03*
D24*
X191770Y1022350D01*
D23*
X294640Y1062990D03*
D24*
X193040Y1062990D01*
D23*
X290830Y1541780D03*
D24*
X201930Y1541780D01*
D23*
X290830Y1581150D03*
D24*
X201930Y1581150D01*
D23*
X290830Y1620520D03*
D24*
X201930Y1620520D01*
D23*
X457200Y1651000D03*
D24*
X431800Y1676400D01*
X368300Y1676400D01*
D23*
X447040Y1711960D03*
D24*
X358140Y1711960D01*
X368300Y1790700D02*
X419100Y1790700D01*
D20*
X1974850Y379730D02*
X1974850Y127000D01*
X2755900Y613410D02*
X2755900Y1720850D01*
X2755900Y613410D02*
X2711450Y568960D01*
X2738120Y1395730D02*
X2627630Y1395730D01*
X2738120Y1395730D02*
X2738120Y621030D01*
X2702560Y585470D01*
D21*
X2702560Y585470D03*
X1992630Y420370D03*
D20*
X1958340Y386080D01*
D21*
X2711450Y568960D03*
X1998980Y403860D03*
D20*
X1974850Y379730D01*
X1958340Y386080D02*
X1958340Y203200D01*
X1464310Y1684020D02*
X1464310Y1780540D01*
X2132330Y1720850D02*
X2755900Y1720850D01*
X2095500Y1684020D02*
X1464310Y1684020D01*
X2095500Y1684020D02*
X2132330Y1720850D01*
D21*
X1464310Y1780540D03*
D24*
X389890Y1471930D02*
X389890Y1296035D01*
X382270Y1288415D01*
X605370Y1466430D02*
X605370Y1761490D01*
X605370Y1466430D02*
X584200Y1445260D01*
X584200Y1443990D01*
D23*
X584200Y1443990D03*
D24*
X675640Y1471930D02*
X675640Y1290955D01*
X671830Y1287145D01*
X636270Y1742390D02*
X655370Y1761490D01*
X636270Y1742390D02*
X636270Y1535430D01*
X675640Y1496060D02*
X675640Y1471930D01*
X675640Y1496060D02*
X636270Y1535430D01*
X962660Y1471930D02*
X962660Y1289685D01*
X961390Y1288415D01*
X706120Y1760740D02*
X705370Y1761490D01*
X706120Y1760740D02*
X706120Y1512570D01*
X709930Y1508760D01*
X962660Y1508760D01*
X962660Y1471930D01*
X1243330Y1470660D02*
X1243330Y1292225D01*
X1239520Y1288415D01*
X755650Y1761210D02*
X755370Y1761490D01*
X755650Y1761210D02*
X755650Y1537970D01*
X979170Y1537970D01*
X1007110Y1510030D02*
X1243330Y1510030D01*
X1243330Y1470660D01*
X1007110Y1510030D02*
X979170Y1537970D01*
X1521460Y1470660D02*
X1521460Y1288415D01*
X1520190Y1287145D01*
X805370Y1761490D02*
X805180Y1761300D01*
X805180Y1569974D01*
X1019556Y1542034D02*
X1257240Y1542034D01*
X1291784Y1507490D01*
X991616Y1569974D02*
X805180Y1569974D01*
X991616Y1569974D02*
X1019556Y1542034D01*
X1521460Y1507490D02*
X1521460Y1470660D01*
X1521460Y1507490D02*
X1291784Y1507490D01*
X1800860Y1473200D02*
X1800860Y1293495D01*
X1790700Y1283335D01*
X855980Y1760880D02*
X855370Y1761490D01*
X855980Y1760880D02*
X855980Y1600200D01*
X1008380Y1600200D01*
X1033780Y1574800D01*
X1273810Y1574800D01*
X1308100Y1540510D01*
X1531620Y1540510D02*
X1562100Y1510030D01*
X1800860Y1510030D01*
X1531620Y1540510D02*
X1308100Y1540510D01*
X1800860Y1510030D02*
X1800860Y1473200D01*
X741680Y872490D02*
X741680Y697230D01*
X737870Y693420D01*
X1049020Y1605280D02*
X1019810Y1634490D01*
X1049020Y1605280D02*
X1292860Y1605280D01*
X1323340Y1574800D01*
X1546860Y1574800D01*
X1578610Y1543050D01*
X1019810Y1634490D02*
X905370Y1634490D01*
X905370Y1761490D01*
X1578610Y1543050D02*
X1929130Y1543050D01*
D23*
X741680Y1041400D03*
D24*
X741680Y872490D01*
X1929130Y1543050D02*
X1930400Y1541780D01*
X1930400Y1215390D01*
X1879600Y1215390D01*
D23*
X1879600Y1215390D03*
D24*
X1101090Y868680D02*
X1101090Y693420D01*
X1096010Y688340D01*
D23*
X1101090Y1013460D03*
D24*
X1101090Y868680D01*
X1446530Y867410D02*
X1446530Y683260D01*
D23*
X1446530Y977900D03*
D24*
X1446530Y867410D01*
X1795780Y871220D02*
X1795780Y688340D01*
X1791970Y684530D01*
X1066800Y1638300D02*
X1055370Y1649730D01*
X1066800Y1638300D02*
X1310640Y1638300D01*
X1341120Y1607820D01*
X1565910Y1607820D01*
X1598930Y1574800D01*
X1967230Y1574800D01*
X1055370Y1649730D02*
X1055370Y1761490D01*
D23*
X1967230Y1110996D03*
D24*
X1967230Y1574800D01*
D23*
X1795780Y948690D03*
D24*
X1795780Y871220D01*
X1788160Y461010D02*
X1788160Y287020D01*
X1784350Y283210D01*
D23*
X2062480Y1714246D03*
X1968500Y463296D03*
D24*
X1968500Y430530D01*
X1892300Y430530D01*
X2062480Y1714246D02*
X2098294Y1750060D01*
X2531110Y1750060D01*
D23*
X2531110Y1750060D03*
X2139218Y639542D03*
D24*
X2139218Y464088D01*
X2138680Y463550D01*
D23*
X2138680Y463550D03*
D24*
X1504950Y290830D02*
X1497330Y283210D01*
D23*
X1676400Y430530D03*
D24*
X1601470Y430530D01*
X1639100Y1760220D02*
X1639570Y1760690D01*
X1639570Y1825244D01*
D23*
X1639570Y1825244D03*
D24*
X1504950Y463550D02*
X1504950Y290830D01*
D23*
X2571750Y1786890D03*
X1797050Y1786890D03*
D24*
X1833880Y1750060D01*
X2035810Y1750060D02*
X2072640Y1786890D01*
X2571750Y1786890D01*
X2035810Y1750060D02*
X1833880Y1750060D01*
X1226820Y468630D02*
X1226820Y289560D01*
X1219200Y281940D01*
D23*
X1394460Y433070D03*
D24*
X1310640Y433070D01*
X937260Y466090D02*
X937260Y283210D01*
X934720Y280670D01*
D23*
X1117600Y431800D03*
D24*
X1029970Y431800D01*
X1028700Y433070D01*
X661670Y466090D02*
X661670Y289560D01*
X657860Y285750D01*
D23*
X838200Y435610D03*
D24*
X831850Y429260D01*
X742950Y429260D01*
X378460Y469900D02*
X378460Y280670D01*
X377190Y279400D01*
D23*
X568960Y436880D03*
D24*
X488950Y436880D01*
D20*
X304800Y622300D02*
X1896110Y622300D01*
X304800Y622300D02*
X304800Y781050D01*
X306070Y782320D01*
X342900Y782320D01*
X1896110Y622300D02*
X1943100Y669290D01*
X1943100Y922020D01*
X2075180Y922020D01*
X2125980Y972820D01*
D21*
X2125980Y972820D03*
X2183130Y976630D03*
D20*
X2566670Y976630D01*
X2566670Y1065530D01*
X2627630Y1065530D01*
D24*
X391160Y872490D02*
X391160Y698500D01*
X386080Y693420D01*
D23*
X558800Y1681480D03*
D24*
X558800Y1485900D02*
X533400Y1460500D01*
X533400Y1409700D01*
D23*
X533400Y1409700D03*
X533400Y1295400D03*
D24*
X533400Y1219200D01*
X391160Y1219200D01*
X391160Y872490D01*
X558800Y1485900D02*
X558800Y1681480D01*
D20*
X1596390Y1654810D02*
X1624906Y1626294D01*
X1596390Y1654810D02*
X1367790Y1654810D01*
X1339850Y1682750D01*
X1273810Y1682750D01*
X1273810Y1732280D01*
X2447866Y1626294D02*
X2627630Y1446530D01*
X2447866Y1626294D02*
X1624906Y1626294D01*
D21*
X2578100Y1616710D03*
D20*
X2578100Y1549400D01*
D21*
X2578100Y1549400D03*
D20*
X1583690Y1635760D02*
X1358900Y1635760D01*
X1328420Y1666240D01*
X1172210Y1666240D01*
X1172210Y1732280D01*
X2435225Y1600835D02*
X2517140Y1518920D01*
X1618556Y1600894D02*
X1583690Y1635760D01*
X1618556Y1600894D02*
X2177474Y1600894D01*
X2177533Y1600835D02*
X2435225Y1600835D01*
X2177533Y1600835D02*
X2177474Y1600894D01*
X2566670Y1090930D02*
X2627630Y1090930D01*
X2517140Y1140460D02*
X2517140Y1518920D01*
X2517140Y1140460D02*
X2566670Y1090930D01*
D25*
X2576830Y887730D02*
X2590800Y873760D01*
X2590800Y829310D01*
X2604770Y815340D01*
X2675890Y815340D01*
X2675890Y327660D01*
X2475230Y327660D01*
D26*
X2475230Y327660D03*
D25*
X2564130Y875030D02*
X2551430Y887730D01*
X2564130Y814070D02*
X2590546Y787654D01*
X2647950Y787654D01*
X2647950Y360680D01*
X2475230Y360680D01*
D26*
X2475230Y360680D03*
D25*
X2564130Y814070D02*
X2564130Y875030D01*
X2538730Y875030D02*
X2526030Y887730D01*
X2538730Y803910D02*
X2559050Y783590D01*
X2559050Y764540D01*
X2618740Y764540D01*
X2618740Y392430D01*
X2475230Y392430D01*
D26*
X2475230Y392430D03*
D25*
X2538730Y803910D02*
X2538730Y875030D01*
D26*
X2589530Y734060D03*
D25*
X2589530Y421640D01*
X2475230Y421640D01*
D26*
X2475230Y421640D03*
X2559050Y703580D03*
D25*
X2559050Y453390D01*
X2475230Y453390D01*
D26*
X2475230Y453390D03*
D25*
X2462530Y875030D02*
X2449830Y887730D01*
X2462530Y875030D02*
X2462530Y840740D01*
X2529840Y773430D01*
X2529840Y487680D01*
X2475230Y487680D01*
D26*
X2475230Y487680D03*
D25*
X2437130Y875030D02*
X2424430Y887730D01*
X2437130Y875030D02*
X2437130Y826770D01*
X2500630Y763270D01*
X2500630Y519430D01*
X2475230Y519430D01*
D26*
X2475230Y519430D03*
D25*
X2411730Y875030D02*
X2399030Y887730D01*
X2411730Y875030D02*
X2411730Y812800D01*
X2475230Y749300D01*
X2475230Y551180D01*
D26*
X2475230Y551180D03*
D25*
X2260600Y184150D02*
X2260600Y152400D01*
X2260600Y184150D02*
X2447290Y184150D01*
X2447290Y736600D01*
X2386330Y875030D02*
X2373630Y887730D01*
X2386330Y797560D02*
X2447290Y736600D01*
X2386330Y797560D02*
X2386330Y875030D01*
X2360930Y875030D02*
X2348230Y887730D01*
X2360930Y875030D02*
X2360930Y784860D01*
X2419350Y726440D01*
X2419350Y213360D01*
X2235200Y213360D01*
X2235200Y152400D01*
X2335530Y875030D02*
X2322830Y887730D01*
X2335530Y875030D02*
X2335530Y770890D01*
X2390140Y716280D01*
X2390140Y238760D01*
X2209800Y238760D01*
X2209800Y152400D01*
X2310130Y875030D02*
X2297430Y887730D01*
X2310130Y759460D02*
X2358390Y711200D01*
X2358390Y264160D01*
X2184400Y264160D01*
X2184400Y152400D01*
X2310130Y759460D02*
X2310130Y875030D01*
X2284730Y875030D02*
X2272030Y887730D01*
X2284730Y745490D02*
X2330450Y699770D01*
X2330450Y289560D01*
X2159000Y289560D01*
X2159000Y152400D01*
X2284730Y745490D02*
X2284730Y875030D01*
X2259330Y875030D02*
X2246630Y887730D01*
X2259330Y732790D02*
X2299970Y692150D01*
X2299970Y316230D01*
X2133600Y316230D01*
X2133600Y152400D01*
X2259330Y732790D02*
X2259330Y875030D01*
X2233930Y875030D02*
X2221230Y887730D01*
X2233930Y718820D02*
X2269490Y683260D01*
X2269490Y344170D02*
X2108200Y344170D01*
X2108200Y152400D01*
X2233930Y718820D02*
X2233930Y875030D01*
X2269490Y683260D02*
X2269490Y344170D01*
X2208530Y875030D02*
X2195830Y887730D01*
X2242820Y370840D02*
X2082800Y370840D01*
X2082800Y152400D01*
X2208530Y706120D02*
X2208530Y875030D01*
X2208530Y706120D02*
X2242820Y671830D01*
X2242820Y370840D01*
X2183130Y875030D02*
X2170430Y887730D01*
X2183130Y693420D02*
X2214880Y661670D01*
X2214880Y396240D01*
X2057400Y396240D01*
X2057400Y152400D01*
X2183130Y693420D02*
X2183130Y875030D01*
X2157730Y875030D02*
X2145030Y887730D01*
X2157730Y680720D02*
X2186940Y651510D01*
X2186940Y421640D01*
X2032000Y421640D01*
X2032000Y152400D01*
X2157730Y680720D02*
X2157730Y875030D01*
X2576830Y862330D02*
X2576830Y821690D01*
X2595880Y802640D01*
X2661920Y802640D01*
X2661920Y344170D01*
X2475230Y344170D01*
D26*
X2475230Y344170D03*
D27*
X2552700Y861060D02*
X2551430Y862330D01*
D25*
X2552700Y861060D02*
X2552700Y806450D01*
X2574290Y784860D01*
X2574290Y774700D01*
X2632710Y774700D01*
X2632710Y377190D01*
X2475230Y377190D01*
D27*
X2475230Y376682D01*
D26*
X2475230Y376682D03*
X2603500Y750570D03*
D25*
X2603500Y406400D01*
X2475230Y406400D01*
D26*
X2475230Y406400D03*
X2574290Y718820D03*
D25*
X2574290Y436880D01*
X2475230Y436880D01*
D26*
X2475230Y436880D03*
D25*
X2475230Y848360D02*
X2475230Y862330D01*
X2475230Y848360D02*
X2545080Y778510D01*
X2545080Y471170D01*
X2475230Y471170D01*
D26*
X2475230Y471170D03*
D25*
X2449830Y833120D02*
X2449830Y862330D01*
X2449830Y833120D02*
X2513330Y769620D01*
X2513330Y504190D01*
X2475230Y504190D01*
D26*
X2475230Y504190D03*
D25*
X2424430Y819150D02*
X2424430Y862330D01*
X2424430Y819150D02*
X2487930Y755650D01*
X2487930Y535940D01*
X2475230Y535940D01*
D26*
X2475230Y535940D03*
D25*
X2399030Y805180D02*
X2399030Y862330D01*
X2399030Y805180D02*
X2461260Y742950D01*
X2461260Y168910D01*
X2273300Y168910D01*
X2273300Y127000D01*
X2286000Y127000D01*
X2260600Y127000D02*
X2247900Y127000D01*
X2247900Y198120D01*
X2433320Y198120D01*
X2433320Y731520D01*
X2373630Y791210D01*
X2373630Y862330D01*
X2348230Y862330D02*
X2348230Y778510D01*
X2404110Y722630D01*
X2404110Y226060D01*
X2222500Y226060D01*
X2222500Y127000D01*
X2235200Y127000D01*
X2322830Y764540D02*
X2322830Y862330D01*
X2374900Y712470D02*
X2374900Y251460D01*
X2197100Y251460D01*
X2197100Y127000D01*
X2209800Y127000D01*
X2374900Y712470D02*
X2322830Y764540D01*
X2297430Y753110D02*
X2297430Y862330D01*
X2297430Y753110D02*
X2344420Y706120D01*
X2344420Y276860D01*
X2171700Y276860D02*
X2171700Y127000D01*
X2184400Y127000D01*
X2171700Y276860D02*
X2344420Y276860D01*
X2272030Y737870D02*
X2272030Y862330D01*
X2315210Y694690D02*
X2315210Y303530D01*
X2146300Y303530D01*
X2146300Y127000D01*
X2159000Y127000D01*
X2315210Y694690D02*
X2272030Y737870D01*
X2246630Y727710D02*
X2246630Y862330D01*
X2246630Y727710D02*
X2286000Y688340D01*
X2286000Y330200D01*
X2120900Y330200D01*
X2120900Y127000D01*
X2133600Y127000D01*
X2221230Y712470D02*
X2221230Y862330D01*
X2256790Y356870D02*
X2095500Y356870D01*
X2095500Y127000D01*
X2108200Y127000D01*
X2256790Y676910D02*
X2221230Y712470D01*
X2256790Y676910D02*
X2256790Y356870D01*
X2195830Y699770D02*
X2195830Y862330D01*
X2228850Y666750D02*
X2228850Y383540D01*
X2070100Y383540D01*
X2070100Y127000D01*
X2082800Y127000D01*
X2228850Y666750D02*
X2195830Y699770D01*
X2044700Y408940D02*
X2044700Y127254D01*
X2044954Y127000D01*
X2057400Y127000D01*
X2170430Y687070D02*
X2170430Y862330D01*
X2200910Y408940D02*
X2044700Y408940D01*
X2200910Y656590D02*
X2170430Y687070D01*
X2200910Y656590D02*
X2200910Y408940D01*
X2145030Y674370D02*
X2145030Y862330D01*
X2171700Y647700D02*
X2171700Y435610D01*
X2171700Y647700D02*
X2145030Y674370D01*
X2014220Y435610D02*
X2014220Y127000D01*
X2032000Y127000D01*
X2014220Y435610D02*
X2171700Y435610D01*
M02*
