G04 EAGLE Gerber RS-274X export*
G75*
%MOMM*%
%FSLAX34Y34*%
%LPD*%
%IN*%
%IPPOS*%
%AMOC8*
5,1,8,0,0,1.08239X$1,22.5*%
G01*
%ADD10C,0.254000*%


D10*
X0Y100000D02*
X381Y91284D01*
X1519Y82635D01*
X3407Y74118D01*
X6031Y65798D01*
X9369Y57738D01*
X13397Y50000D01*
X18085Y42642D01*
X23396Y35721D01*
X29289Y29289D01*
X35721Y23396D01*
X42642Y18085D01*
X50000Y13397D01*
X57738Y9369D01*
X65798Y6031D01*
X74118Y3407D01*
X82635Y1519D01*
X91284Y381D01*
X100000Y0D01*
X2700000Y0D01*
X2708716Y381D01*
X2717365Y1519D01*
X2725882Y3407D01*
X2734202Y6031D01*
X2742262Y9369D01*
X2750000Y13397D01*
X2757358Y18085D01*
X2764279Y23396D01*
X2770711Y29289D01*
X2776604Y35721D01*
X2781915Y42642D01*
X2786603Y50000D01*
X2790631Y57738D01*
X2793969Y65798D01*
X2796593Y74118D01*
X2798481Y82635D01*
X2799619Y91284D01*
X2800000Y100000D01*
X2800000Y1800000D01*
X2799619Y1808716D01*
X2798481Y1817365D01*
X2796593Y1825882D01*
X2793969Y1834202D01*
X2790631Y1842262D01*
X2786603Y1850000D01*
X2781915Y1857358D01*
X2776604Y1864279D01*
X2770711Y1870711D01*
X2764279Y1876604D01*
X2757358Y1881915D01*
X2750000Y1886603D01*
X2742262Y1890631D01*
X2734202Y1893969D01*
X2725882Y1896593D01*
X2717365Y1898481D01*
X2708716Y1899619D01*
X2700000Y1900000D01*
X100000Y1900000D01*
X91284Y1899619D01*
X82635Y1898481D01*
X74118Y1896593D01*
X65798Y1893969D01*
X57738Y1890631D01*
X50000Y1886603D01*
X42642Y1881915D01*
X35721Y1876604D01*
X29289Y1870711D01*
X23396Y1864279D01*
X18085Y1857358D01*
X13397Y1850000D01*
X9369Y1842262D01*
X6031Y1834202D01*
X3407Y1825882D01*
X1519Y1817365D01*
X381Y1808716D01*
X0Y1800000D01*
X0Y100000D01*
X114995Y1800481D02*
X114927Y1799436D01*
X114790Y1798397D01*
X114585Y1797370D01*
X114314Y1796358D01*
X113978Y1795366D01*
X113577Y1794398D01*
X113113Y1793459D01*
X112590Y1792551D01*
X112008Y1791680D01*
X111370Y1790849D01*
X110679Y1790062D01*
X109938Y1789321D01*
X109151Y1788630D01*
X108320Y1787993D01*
X107449Y1787411D01*
X106541Y1786887D01*
X105602Y1786423D01*
X104634Y1786022D01*
X103642Y1785686D01*
X102630Y1785415D01*
X101603Y1785210D01*
X100564Y1785074D01*
X99519Y1785005D01*
X98471Y1785005D01*
X97426Y1785074D01*
X96387Y1785210D01*
X95360Y1785415D01*
X94348Y1785686D01*
X93356Y1786022D01*
X92388Y1786423D01*
X91449Y1786887D01*
X90541Y1787411D01*
X89670Y1787993D01*
X88839Y1788630D01*
X88052Y1789321D01*
X87311Y1790062D01*
X86620Y1790849D01*
X85983Y1791680D01*
X85401Y1792551D01*
X84877Y1793459D01*
X84413Y1794398D01*
X84012Y1795366D01*
X83676Y1796358D01*
X83405Y1797370D01*
X83200Y1798397D01*
X83064Y1799436D01*
X82995Y1800481D01*
X82995Y1801529D01*
X83064Y1802574D01*
X83200Y1803613D01*
X83405Y1804640D01*
X83676Y1805652D01*
X84012Y1806644D01*
X84413Y1807612D01*
X84877Y1808551D01*
X85401Y1809459D01*
X85983Y1810330D01*
X86620Y1811161D01*
X87311Y1811948D01*
X88052Y1812689D01*
X88839Y1813380D01*
X89670Y1814018D01*
X90541Y1814600D01*
X91449Y1815123D01*
X92388Y1815587D01*
X93356Y1815988D01*
X94348Y1816324D01*
X95360Y1816595D01*
X96387Y1816800D01*
X97426Y1816937D01*
X98471Y1817005D01*
X99519Y1817005D01*
X100564Y1816937D01*
X101603Y1816800D01*
X102630Y1816595D01*
X103642Y1816324D01*
X104634Y1815988D01*
X105602Y1815587D01*
X106541Y1815123D01*
X107449Y1814600D01*
X108320Y1814018D01*
X109151Y1813380D01*
X109938Y1812689D01*
X110679Y1811948D01*
X111370Y1811161D01*
X112008Y1810330D01*
X112590Y1809459D01*
X113113Y1808551D01*
X113577Y1807612D01*
X113978Y1806644D01*
X114314Y1805652D01*
X114585Y1804640D01*
X114790Y1803613D01*
X114927Y1802574D01*
X114995Y1801529D01*
X114995Y1800481D01*
X114995Y98471D02*
X114927Y97426D01*
X114790Y96387D01*
X114585Y95360D01*
X114314Y94348D01*
X113978Y93356D01*
X113577Y92388D01*
X113113Y91449D01*
X112590Y90541D01*
X112008Y89670D01*
X111370Y88839D01*
X110679Y88052D01*
X109938Y87311D01*
X109151Y86620D01*
X108320Y85983D01*
X107449Y85401D01*
X106541Y84877D01*
X105602Y84413D01*
X104634Y84012D01*
X103642Y83676D01*
X102630Y83405D01*
X101603Y83200D01*
X100564Y83064D01*
X99519Y82995D01*
X98471Y82995D01*
X97426Y83064D01*
X96387Y83200D01*
X95360Y83405D01*
X94348Y83676D01*
X93356Y84012D01*
X92388Y84413D01*
X91449Y84877D01*
X90541Y85401D01*
X89670Y85983D01*
X88839Y86620D01*
X88052Y87311D01*
X87311Y88052D01*
X86620Y88839D01*
X85983Y89670D01*
X85401Y90541D01*
X84877Y91449D01*
X84413Y92388D01*
X84012Y93356D01*
X83676Y94348D01*
X83405Y95360D01*
X83200Y96387D01*
X83064Y97426D01*
X82995Y98471D01*
X82995Y99519D01*
X83064Y100564D01*
X83200Y101603D01*
X83405Y102630D01*
X83676Y103642D01*
X84012Y104634D01*
X84413Y105602D01*
X84877Y106541D01*
X85401Y107449D01*
X85983Y108320D01*
X86620Y109151D01*
X87311Y109938D01*
X88052Y110679D01*
X88839Y111370D01*
X89670Y112008D01*
X90541Y112590D01*
X91449Y113113D01*
X92388Y113577D01*
X93356Y113978D01*
X94348Y114314D01*
X95360Y114585D01*
X96387Y114790D01*
X97426Y114927D01*
X98471Y114995D01*
X99519Y114995D01*
X100564Y114927D01*
X101603Y114790D01*
X102630Y114585D01*
X103642Y114314D01*
X104634Y113978D01*
X105602Y113577D01*
X106541Y113113D01*
X107449Y112590D01*
X108320Y112008D01*
X109151Y111370D01*
X109938Y110679D01*
X110679Y109938D01*
X111370Y109151D01*
X112008Y108320D01*
X112590Y107449D01*
X113113Y106541D01*
X113577Y105602D01*
X113978Y104634D01*
X114314Y103642D01*
X114585Y102630D01*
X114790Y101603D01*
X114927Y100564D01*
X114995Y99519D01*
X114995Y98471D01*
X2716000Y1799476D02*
X2715932Y1798431D01*
X2715795Y1797392D01*
X2715590Y1796365D01*
X2715319Y1795353D01*
X2714983Y1794361D01*
X2714582Y1793393D01*
X2714118Y1792454D01*
X2713595Y1791546D01*
X2713013Y1790675D01*
X2712375Y1789844D01*
X2711684Y1789057D01*
X2710943Y1788316D01*
X2710156Y1787625D01*
X2709325Y1786988D01*
X2708454Y1786406D01*
X2707546Y1785882D01*
X2706607Y1785418D01*
X2705639Y1785017D01*
X2704647Y1784681D01*
X2703635Y1784410D01*
X2702608Y1784205D01*
X2701569Y1784069D01*
X2700524Y1784000D01*
X2699476Y1784000D01*
X2698431Y1784069D01*
X2697392Y1784205D01*
X2696365Y1784410D01*
X2695353Y1784681D01*
X2694361Y1785017D01*
X2693393Y1785418D01*
X2692454Y1785882D01*
X2691546Y1786406D01*
X2690675Y1786988D01*
X2689844Y1787625D01*
X2689057Y1788316D01*
X2688316Y1789057D01*
X2687625Y1789844D01*
X2686988Y1790675D01*
X2686406Y1791546D01*
X2685882Y1792454D01*
X2685418Y1793393D01*
X2685017Y1794361D01*
X2684681Y1795353D01*
X2684410Y1796365D01*
X2684205Y1797392D01*
X2684069Y1798431D01*
X2684000Y1799476D01*
X2684000Y1800524D01*
X2684069Y1801569D01*
X2684205Y1802608D01*
X2684410Y1803635D01*
X2684681Y1804647D01*
X2685017Y1805639D01*
X2685418Y1806607D01*
X2685882Y1807546D01*
X2686406Y1808454D01*
X2686988Y1809325D01*
X2687625Y1810156D01*
X2688316Y1810943D01*
X2689057Y1811684D01*
X2689844Y1812375D01*
X2690675Y1813013D01*
X2691546Y1813595D01*
X2692454Y1814118D01*
X2693393Y1814582D01*
X2694361Y1814983D01*
X2695353Y1815319D01*
X2696365Y1815590D01*
X2697392Y1815795D01*
X2698431Y1815932D01*
X2699476Y1816000D01*
X2700524Y1816000D01*
X2701569Y1815932D01*
X2702608Y1815795D01*
X2703635Y1815590D01*
X2704647Y1815319D01*
X2705639Y1814983D01*
X2706607Y1814582D01*
X2707546Y1814118D01*
X2708454Y1813595D01*
X2709325Y1813013D01*
X2710156Y1812375D01*
X2710943Y1811684D01*
X2711684Y1810943D01*
X2712375Y1810156D01*
X2713013Y1809325D01*
X2713595Y1808454D01*
X2714118Y1807546D01*
X2714582Y1806607D01*
X2714983Y1805639D01*
X2715319Y1804647D01*
X2715590Y1803635D01*
X2715795Y1802608D01*
X2715932Y1801569D01*
X2716000Y1800524D01*
X2716000Y1799476D01*
X2717005Y98471D02*
X2716937Y97426D01*
X2716800Y96387D01*
X2716595Y95360D01*
X2716324Y94348D01*
X2715988Y93356D01*
X2715587Y92388D01*
X2715123Y91449D01*
X2714600Y90541D01*
X2714018Y89670D01*
X2713380Y88839D01*
X2712689Y88052D01*
X2711948Y87311D01*
X2711161Y86620D01*
X2710330Y85983D01*
X2709459Y85401D01*
X2708551Y84877D01*
X2707612Y84413D01*
X2706644Y84012D01*
X2705652Y83676D01*
X2704640Y83405D01*
X2703613Y83200D01*
X2702574Y83064D01*
X2701529Y82995D01*
X2700481Y82995D01*
X2699436Y83064D01*
X2698397Y83200D01*
X2697370Y83405D01*
X2696358Y83676D01*
X2695366Y84012D01*
X2694398Y84413D01*
X2693459Y84877D01*
X2692551Y85401D01*
X2691680Y85983D01*
X2690849Y86620D01*
X2690062Y87311D01*
X2689321Y88052D01*
X2688630Y88839D01*
X2687993Y89670D01*
X2687411Y90541D01*
X2686887Y91449D01*
X2686423Y92388D01*
X2686022Y93356D01*
X2685686Y94348D01*
X2685415Y95360D01*
X2685210Y96387D01*
X2685074Y97426D01*
X2685005Y98471D01*
X2685005Y99519D01*
X2685074Y100564D01*
X2685210Y101603D01*
X2685415Y102630D01*
X2685686Y103642D01*
X2686022Y104634D01*
X2686423Y105602D01*
X2686887Y106541D01*
X2687411Y107449D01*
X2687993Y108320D01*
X2688630Y109151D01*
X2689321Y109938D01*
X2690062Y110679D01*
X2690849Y111370D01*
X2691680Y112008D01*
X2692551Y112590D01*
X2693459Y113113D01*
X2694398Y113577D01*
X2695366Y113978D01*
X2696358Y114314D01*
X2697370Y114585D01*
X2698397Y114790D01*
X2699436Y114927D01*
X2700481Y114995D01*
X2701529Y114995D01*
X2702574Y114927D01*
X2703613Y114790D01*
X2704640Y114585D01*
X2705652Y114314D01*
X2706644Y113978D01*
X2707612Y113577D01*
X2708551Y113113D01*
X2709459Y112590D01*
X2710330Y112008D01*
X2711161Y111370D01*
X2711948Y110679D01*
X2712689Y109938D01*
X2713380Y109151D01*
X2714018Y108320D01*
X2714600Y107449D01*
X2715123Y106541D01*
X2715587Y105602D01*
X2715988Y104634D01*
X2716324Y103642D01*
X2716595Y102630D01*
X2716800Y101603D01*
X2716937Y100564D01*
X2717005Y99519D01*
X2717005Y98471D01*
X1242840Y1838630D02*
X1242772Y1837585D01*
X1242635Y1836546D01*
X1242430Y1835519D01*
X1242159Y1834507D01*
X1241823Y1833515D01*
X1241422Y1832547D01*
X1240958Y1831608D01*
X1240435Y1830700D01*
X1239853Y1829829D01*
X1239215Y1828998D01*
X1238524Y1828211D01*
X1237783Y1827470D01*
X1236996Y1826779D01*
X1236165Y1826142D01*
X1235294Y1825560D01*
X1234386Y1825036D01*
X1233447Y1824572D01*
X1232479Y1824171D01*
X1231487Y1823835D01*
X1230475Y1823564D01*
X1229448Y1823359D01*
X1228409Y1823223D01*
X1227364Y1823154D01*
X1226316Y1823154D01*
X1225271Y1823223D01*
X1224232Y1823359D01*
X1223205Y1823564D01*
X1222193Y1823835D01*
X1221201Y1824171D01*
X1220233Y1824572D01*
X1219294Y1825036D01*
X1218386Y1825560D01*
X1217515Y1826142D01*
X1216684Y1826779D01*
X1215897Y1827470D01*
X1215156Y1828211D01*
X1214465Y1828998D01*
X1213828Y1829829D01*
X1213246Y1830700D01*
X1212722Y1831608D01*
X1212258Y1832547D01*
X1211857Y1833515D01*
X1211521Y1834507D01*
X1211250Y1835519D01*
X1211045Y1836546D01*
X1210909Y1837585D01*
X1210840Y1838630D01*
X1210840Y1839678D01*
X1210909Y1840723D01*
X1211045Y1841762D01*
X1211250Y1842789D01*
X1211521Y1843801D01*
X1211857Y1844793D01*
X1212258Y1845761D01*
X1212722Y1846700D01*
X1213246Y1847608D01*
X1213828Y1848479D01*
X1214465Y1849310D01*
X1215156Y1850097D01*
X1215897Y1850838D01*
X1216684Y1851529D01*
X1217515Y1852167D01*
X1218386Y1852749D01*
X1219294Y1853272D01*
X1220233Y1853736D01*
X1221201Y1854137D01*
X1222193Y1854473D01*
X1223205Y1854744D01*
X1224232Y1854949D01*
X1225271Y1855086D01*
X1226316Y1855154D01*
X1227364Y1855154D01*
X1228409Y1855086D01*
X1229448Y1854949D01*
X1230475Y1854744D01*
X1231487Y1854473D01*
X1232479Y1854137D01*
X1233447Y1853736D01*
X1234386Y1853272D01*
X1235294Y1852749D01*
X1236165Y1852167D01*
X1236996Y1851529D01*
X1237783Y1850838D01*
X1238524Y1850097D01*
X1239215Y1849310D01*
X1239853Y1848479D01*
X1240435Y1847608D01*
X1240958Y1846700D01*
X1241422Y1845761D01*
X1241823Y1844793D01*
X1242159Y1843801D01*
X1242430Y1842789D01*
X1242635Y1841762D01*
X1242772Y1840723D01*
X1242840Y1839678D01*
X1242840Y1838630D01*
X1415951Y99476D02*
X1415883Y98431D01*
X1415746Y97392D01*
X1415541Y96365D01*
X1415270Y95353D01*
X1414934Y94361D01*
X1414533Y93393D01*
X1414069Y92454D01*
X1413546Y91546D01*
X1412964Y90675D01*
X1412326Y89844D01*
X1411635Y89057D01*
X1410894Y88316D01*
X1410107Y87625D01*
X1409276Y86988D01*
X1408405Y86406D01*
X1407497Y85882D01*
X1406558Y85418D01*
X1405590Y85017D01*
X1404598Y84681D01*
X1403586Y84410D01*
X1402559Y84205D01*
X1401520Y84069D01*
X1400475Y84000D01*
X1399427Y84000D01*
X1398382Y84069D01*
X1397343Y84205D01*
X1396316Y84410D01*
X1395304Y84681D01*
X1394312Y85017D01*
X1393344Y85418D01*
X1392405Y85882D01*
X1391497Y86406D01*
X1390626Y86988D01*
X1389795Y87625D01*
X1389008Y88316D01*
X1388267Y89057D01*
X1387576Y89844D01*
X1386939Y90675D01*
X1386357Y91546D01*
X1385833Y92454D01*
X1385369Y93393D01*
X1384968Y94361D01*
X1384632Y95353D01*
X1384361Y96365D01*
X1384156Y97392D01*
X1384020Y98431D01*
X1383951Y99476D01*
X1383951Y100524D01*
X1384020Y101569D01*
X1384156Y102608D01*
X1384361Y103635D01*
X1384632Y104647D01*
X1384968Y105639D01*
X1385369Y106607D01*
X1385833Y107546D01*
X1386357Y108454D01*
X1386939Y109325D01*
X1387576Y110156D01*
X1388267Y110943D01*
X1389008Y111684D01*
X1389795Y112375D01*
X1390626Y113013D01*
X1391497Y113595D01*
X1392405Y114118D01*
X1393344Y114582D01*
X1394312Y114983D01*
X1395304Y115319D01*
X1396316Y115590D01*
X1397343Y115795D01*
X1398382Y115932D01*
X1399427Y116000D01*
X1400475Y116000D01*
X1401520Y115932D01*
X1402559Y115795D01*
X1403586Y115590D01*
X1404598Y115319D01*
X1405590Y114983D01*
X1406558Y114582D01*
X1407497Y114118D01*
X1408405Y113595D01*
X1409276Y113013D01*
X1410107Y112375D01*
X1410894Y111684D01*
X1411635Y110943D01*
X1412326Y110156D01*
X1412964Y109325D01*
X1413546Y108454D01*
X1414069Y107546D01*
X1414533Y106607D01*
X1414934Y105639D01*
X1415270Y104647D01*
X1415541Y103635D01*
X1415746Y102608D01*
X1415883Y101569D01*
X1415951Y100524D01*
X1415951Y99476D01*
X116000Y949506D02*
X115932Y948461D01*
X115795Y947422D01*
X115590Y946395D01*
X115319Y945383D01*
X114983Y944391D01*
X114582Y943423D01*
X114118Y942484D01*
X113595Y941576D01*
X113013Y940705D01*
X112375Y939874D01*
X111684Y939087D01*
X110943Y938346D01*
X110156Y937655D01*
X109325Y937018D01*
X108454Y936436D01*
X107546Y935912D01*
X106607Y935448D01*
X105639Y935047D01*
X104647Y934711D01*
X103635Y934440D01*
X102608Y934235D01*
X101569Y934099D01*
X100524Y934030D01*
X99476Y934030D01*
X98431Y934099D01*
X97392Y934235D01*
X96365Y934440D01*
X95353Y934711D01*
X94361Y935047D01*
X93393Y935448D01*
X92454Y935912D01*
X91546Y936436D01*
X90675Y937018D01*
X89844Y937655D01*
X89057Y938346D01*
X88316Y939087D01*
X87625Y939874D01*
X86988Y940705D01*
X86406Y941576D01*
X85882Y942484D01*
X85418Y943423D01*
X85017Y944391D01*
X84681Y945383D01*
X84410Y946395D01*
X84205Y947422D01*
X84069Y948461D01*
X84000Y949506D01*
X84000Y950554D01*
X84069Y951599D01*
X84205Y952638D01*
X84410Y953665D01*
X84681Y954677D01*
X85017Y955669D01*
X85418Y956637D01*
X85882Y957576D01*
X86406Y958484D01*
X86988Y959355D01*
X87625Y960186D01*
X88316Y960973D01*
X89057Y961714D01*
X89844Y962405D01*
X90675Y963043D01*
X91546Y963625D01*
X92454Y964148D01*
X93393Y964612D01*
X94361Y965013D01*
X95353Y965349D01*
X96365Y965620D01*
X97392Y965825D01*
X98431Y965962D01*
X99476Y966030D01*
X100524Y966030D01*
X101569Y965962D01*
X102608Y965825D01*
X103635Y965620D01*
X104647Y965349D01*
X105639Y965013D01*
X106607Y964612D01*
X107546Y964148D01*
X108454Y963625D01*
X109325Y963043D01*
X110156Y962405D01*
X110943Y961714D01*
X111684Y960973D01*
X112375Y960186D01*
X113013Y959355D01*
X113595Y958484D01*
X114118Y957576D01*
X114582Y956637D01*
X114983Y955669D01*
X115319Y954677D01*
X115590Y953665D01*
X115795Y952638D01*
X115932Y951599D01*
X116000Y950554D01*
X116000Y949506D01*
X2611630Y1687306D02*
X2611699Y1686261D01*
X2611835Y1685222D01*
X2612040Y1684195D01*
X2612311Y1683183D01*
X2612647Y1682191D01*
X2613048Y1681223D01*
X2613512Y1680284D01*
X2614036Y1679376D01*
X2614618Y1678505D01*
X2615255Y1677674D01*
X2615946Y1676887D01*
X2616687Y1676146D01*
X2617474Y1675455D01*
X2618305Y1674818D01*
X2619176Y1674236D01*
X2620084Y1673712D01*
X2621023Y1673248D01*
X2621991Y1672847D01*
X2622983Y1672511D01*
X2623995Y1672240D01*
X2625022Y1672035D01*
X2626061Y1671899D01*
X2627106Y1671830D01*
X2628154Y1671830D01*
X2629199Y1671899D01*
X2630238Y1672035D01*
X2631265Y1672240D01*
X2632277Y1672511D01*
X2633269Y1672847D01*
X2634237Y1673248D01*
X2635176Y1673712D01*
X2636084Y1674236D01*
X2636955Y1674818D01*
X2637786Y1675455D01*
X2638573Y1676146D01*
X2639314Y1676887D01*
X2640005Y1677674D01*
X2640643Y1678505D01*
X2641225Y1679376D01*
X2641748Y1680284D01*
X2642212Y1681223D01*
X2642613Y1682191D01*
X2642949Y1683183D01*
X2643220Y1684195D01*
X2643425Y1685222D01*
X2643562Y1686261D01*
X2643630Y1687306D01*
X2643630Y1688354D01*
X2643562Y1689399D01*
X2643425Y1690438D01*
X2643220Y1691465D01*
X2642949Y1692477D01*
X2642613Y1693469D01*
X2642212Y1694437D01*
X2641748Y1695376D01*
X2641225Y1696284D01*
X2640643Y1697155D01*
X2640005Y1697986D01*
X2639314Y1698773D01*
X2638573Y1699514D01*
X2637786Y1700205D01*
X2636955Y1700843D01*
X2636084Y1701425D01*
X2635176Y1701948D01*
X2634237Y1702412D01*
X2633269Y1702813D01*
X2632277Y1703149D01*
X2631265Y1703420D01*
X2630238Y1703625D01*
X2629199Y1703762D01*
X2628154Y1703830D01*
X2627106Y1703830D01*
X2626061Y1703762D01*
X2625022Y1703625D01*
X2623995Y1703420D01*
X2622983Y1703149D01*
X2621991Y1702813D01*
X2621023Y1702412D01*
X2620084Y1701948D01*
X2619176Y1701425D01*
X2618305Y1700843D01*
X2617474Y1700205D01*
X2616687Y1699514D01*
X2615946Y1698773D01*
X2615255Y1697986D01*
X2614618Y1697155D01*
X2614036Y1696284D01*
X2613512Y1695376D01*
X2613048Y1694437D01*
X2612647Y1693469D01*
X2612311Y1692477D01*
X2612040Y1691465D01*
X2611835Y1690438D01*
X2611699Y1689399D01*
X2611630Y1688354D01*
X2611630Y1687306D01*
X2560830Y1166606D02*
X2560899Y1165561D01*
X2561035Y1164522D01*
X2561240Y1163495D01*
X2561511Y1162483D01*
X2561847Y1161491D01*
X2562248Y1160523D01*
X2562712Y1159584D01*
X2563236Y1158676D01*
X2563818Y1157805D01*
X2564455Y1156974D01*
X2565146Y1156187D01*
X2565887Y1155446D01*
X2566674Y1154755D01*
X2567505Y1154118D01*
X2568376Y1153536D01*
X2569284Y1153012D01*
X2570223Y1152548D01*
X2571191Y1152147D01*
X2572183Y1151811D01*
X2573195Y1151540D01*
X2574222Y1151335D01*
X2575261Y1151199D01*
X2576306Y1151130D01*
X2577354Y1151130D01*
X2578399Y1151199D01*
X2579438Y1151335D01*
X2580465Y1151540D01*
X2581477Y1151811D01*
X2582469Y1152147D01*
X2583437Y1152548D01*
X2584376Y1153012D01*
X2585284Y1153536D01*
X2586155Y1154118D01*
X2586986Y1154755D01*
X2587773Y1155446D01*
X2588514Y1156187D01*
X2589205Y1156974D01*
X2589843Y1157805D01*
X2590425Y1158676D01*
X2590948Y1159584D01*
X2591412Y1160523D01*
X2591813Y1161491D01*
X2592149Y1162483D01*
X2592420Y1163495D01*
X2592625Y1164522D01*
X2592762Y1165561D01*
X2592830Y1166606D01*
X2592830Y1167654D01*
X2592762Y1168699D01*
X2592625Y1169738D01*
X2592420Y1170765D01*
X2592149Y1171777D01*
X2591813Y1172769D01*
X2591412Y1173737D01*
X2590948Y1174676D01*
X2590425Y1175584D01*
X2589843Y1176455D01*
X2589205Y1177286D01*
X2588514Y1178073D01*
X2587773Y1178814D01*
X2586986Y1179505D01*
X2586155Y1180143D01*
X2585284Y1180725D01*
X2584376Y1181248D01*
X2583437Y1181712D01*
X2582469Y1182113D01*
X2581477Y1182449D01*
X2580465Y1182720D01*
X2579438Y1182925D01*
X2578399Y1183062D01*
X2577354Y1183130D01*
X2576306Y1183130D01*
X2575261Y1183062D01*
X2574222Y1182925D01*
X2573195Y1182720D01*
X2572183Y1182449D01*
X2571191Y1182113D01*
X2570223Y1181712D01*
X2569284Y1181248D01*
X2568376Y1180725D01*
X2567505Y1180143D01*
X2566674Y1179505D01*
X2565887Y1178814D01*
X2565146Y1178073D01*
X2564455Y1177286D01*
X2563818Y1176455D01*
X2563236Y1175584D01*
X2562712Y1174676D01*
X2562248Y1173737D01*
X2561847Y1172769D01*
X2561511Y1171777D01*
X2561240Y1170765D01*
X2561035Y1169738D01*
X2560899Y1168699D01*
X2560830Y1167654D01*
X2560830Y1166606D01*
X2281430Y1166606D02*
X2281499Y1165561D01*
X2281635Y1164522D01*
X2281840Y1163495D01*
X2282111Y1162483D01*
X2282447Y1161491D01*
X2282848Y1160523D01*
X2283312Y1159584D01*
X2283836Y1158676D01*
X2284418Y1157805D01*
X2285055Y1156974D01*
X2285746Y1156187D01*
X2286487Y1155446D01*
X2287274Y1154755D01*
X2288105Y1154118D01*
X2288976Y1153536D01*
X2289884Y1153012D01*
X2290823Y1152548D01*
X2291791Y1152147D01*
X2292783Y1151811D01*
X2293795Y1151540D01*
X2294822Y1151335D01*
X2295861Y1151199D01*
X2296906Y1151130D01*
X2297954Y1151130D01*
X2298999Y1151199D01*
X2300038Y1151335D01*
X2301065Y1151540D01*
X2302077Y1151811D01*
X2303069Y1152147D01*
X2304037Y1152548D01*
X2304976Y1153012D01*
X2305884Y1153536D01*
X2306755Y1154118D01*
X2307586Y1154755D01*
X2308373Y1155446D01*
X2309114Y1156187D01*
X2309805Y1156974D01*
X2310443Y1157805D01*
X2311025Y1158676D01*
X2311548Y1159584D01*
X2312012Y1160523D01*
X2312413Y1161491D01*
X2312749Y1162483D01*
X2313020Y1163495D01*
X2313225Y1164522D01*
X2313362Y1165561D01*
X2313430Y1166606D01*
X2313430Y1167654D01*
X2313362Y1168699D01*
X2313225Y1169738D01*
X2313020Y1170765D01*
X2312749Y1171777D01*
X2312413Y1172769D01*
X2312012Y1173737D01*
X2311548Y1174676D01*
X2311025Y1175584D01*
X2310443Y1176455D01*
X2309805Y1177286D01*
X2309114Y1178073D01*
X2308373Y1178814D01*
X2307586Y1179505D01*
X2306755Y1180143D01*
X2305884Y1180725D01*
X2304976Y1181248D01*
X2304037Y1181712D01*
X2303069Y1182113D01*
X2302077Y1182449D01*
X2301065Y1182720D01*
X2300038Y1182925D01*
X2298999Y1183062D01*
X2297954Y1183130D01*
X2296906Y1183130D01*
X2295861Y1183062D01*
X2294822Y1182925D01*
X2293795Y1182720D01*
X2292783Y1182449D01*
X2291791Y1182113D01*
X2290823Y1181712D01*
X2289884Y1181248D01*
X2288976Y1180725D01*
X2288105Y1180143D01*
X2287274Y1179505D01*
X2286487Y1178814D01*
X2285746Y1178073D01*
X2285055Y1177286D01*
X2284418Y1176455D01*
X2283836Y1175584D01*
X2283312Y1174676D01*
X2282848Y1173737D01*
X2282447Y1172769D01*
X2282111Y1171777D01*
X2281840Y1170765D01*
X2281635Y1169738D01*
X2281499Y1168699D01*
X2281430Y1167654D01*
X2281430Y1166606D01*
X2129030Y1674606D02*
X2129099Y1673561D01*
X2129235Y1672522D01*
X2129440Y1671495D01*
X2129711Y1670483D01*
X2130047Y1669491D01*
X2130448Y1668523D01*
X2130912Y1667584D01*
X2131436Y1666676D01*
X2132018Y1665805D01*
X2132655Y1664974D01*
X2133346Y1664187D01*
X2134087Y1663446D01*
X2134874Y1662755D01*
X2135705Y1662118D01*
X2136576Y1661536D01*
X2137484Y1661012D01*
X2138423Y1660548D01*
X2139391Y1660147D01*
X2140383Y1659811D01*
X2141395Y1659540D01*
X2142422Y1659335D01*
X2143461Y1659199D01*
X2144506Y1659130D01*
X2145554Y1659130D01*
X2146599Y1659199D01*
X2147638Y1659335D01*
X2148665Y1659540D01*
X2149677Y1659811D01*
X2150669Y1660147D01*
X2151637Y1660548D01*
X2152576Y1661012D01*
X2153484Y1661536D01*
X2154355Y1662118D01*
X2155186Y1662755D01*
X2155973Y1663446D01*
X2156714Y1664187D01*
X2157405Y1664974D01*
X2158043Y1665805D01*
X2158625Y1666676D01*
X2159148Y1667584D01*
X2159612Y1668523D01*
X2160013Y1669491D01*
X2160349Y1670483D01*
X2160620Y1671495D01*
X2160825Y1672522D01*
X2160962Y1673561D01*
X2161030Y1674606D01*
X2161030Y1675654D01*
X2160962Y1676699D01*
X2160825Y1677738D01*
X2160620Y1678765D01*
X2160349Y1679777D01*
X2160013Y1680769D01*
X2159612Y1681737D01*
X2159148Y1682676D01*
X2158625Y1683584D01*
X2158043Y1684455D01*
X2157405Y1685286D01*
X2156714Y1686073D01*
X2155973Y1686814D01*
X2155186Y1687505D01*
X2154355Y1688143D01*
X2153484Y1688725D01*
X2152576Y1689248D01*
X2151637Y1689712D01*
X2150669Y1690113D01*
X2149677Y1690449D01*
X2148665Y1690720D01*
X2147638Y1690925D01*
X2146599Y1691062D01*
X2145554Y1691130D01*
X2144506Y1691130D01*
X2143461Y1691062D01*
X2142422Y1690925D01*
X2141395Y1690720D01*
X2140383Y1690449D01*
X2139391Y1690113D01*
X2138423Y1689712D01*
X2137484Y1689248D01*
X2136576Y1688725D01*
X2135705Y1688143D01*
X2134874Y1687505D01*
X2134087Y1686814D01*
X2133346Y1686073D01*
X2132655Y1685286D01*
X2132018Y1684455D01*
X2131436Y1683584D01*
X2130912Y1682676D01*
X2130448Y1681737D01*
X2130047Y1680769D01*
X2129711Y1679777D01*
X2129440Y1678765D01*
X2129235Y1677738D01*
X2129099Y1676699D01*
X2129030Y1675654D01*
X2129030Y1674606D01*
X2611630Y861806D02*
X2611699Y860761D01*
X2611835Y859722D01*
X2612040Y858695D01*
X2612311Y857683D01*
X2612647Y856691D01*
X2613048Y855723D01*
X2613512Y854784D01*
X2614036Y853876D01*
X2614618Y853005D01*
X2615255Y852174D01*
X2615946Y851387D01*
X2616687Y850646D01*
X2617474Y849955D01*
X2618305Y849318D01*
X2619176Y848736D01*
X2620084Y848212D01*
X2621023Y847748D01*
X2621991Y847347D01*
X2622983Y847011D01*
X2623995Y846740D01*
X2625022Y846535D01*
X2626061Y846399D01*
X2627106Y846330D01*
X2628154Y846330D01*
X2629199Y846399D01*
X2630238Y846535D01*
X2631265Y846740D01*
X2632277Y847011D01*
X2633269Y847347D01*
X2634237Y847748D01*
X2635176Y848212D01*
X2636084Y848736D01*
X2636955Y849318D01*
X2637786Y849955D01*
X2638573Y850646D01*
X2639314Y851387D01*
X2640005Y852174D01*
X2640643Y853005D01*
X2641225Y853876D01*
X2641748Y854784D01*
X2642212Y855723D01*
X2642613Y856691D01*
X2642949Y857683D01*
X2643220Y858695D01*
X2643425Y859722D01*
X2643562Y860761D01*
X2643630Y861806D01*
X2643630Y862854D01*
X2643562Y863899D01*
X2643425Y864938D01*
X2643220Y865965D01*
X2642949Y866977D01*
X2642613Y867969D01*
X2642212Y868937D01*
X2641748Y869876D01*
X2641225Y870784D01*
X2640643Y871655D01*
X2640005Y872486D01*
X2639314Y873273D01*
X2638573Y874014D01*
X2637786Y874705D01*
X2636955Y875343D01*
X2636084Y875925D01*
X2635176Y876448D01*
X2634237Y876912D01*
X2633269Y877313D01*
X2632277Y877649D01*
X2631265Y877920D01*
X2630238Y878125D01*
X2629199Y878262D01*
X2628154Y878330D01*
X2627106Y878330D01*
X2626061Y878262D01*
X2625022Y878125D01*
X2623995Y877920D01*
X2622983Y877649D01*
X2621991Y877313D01*
X2621023Y876912D01*
X2620084Y876448D01*
X2619176Y875925D01*
X2618305Y875343D01*
X2617474Y874705D01*
X2616687Y874014D01*
X2615946Y873273D01*
X2615255Y872486D01*
X2614618Y871655D01*
X2614036Y870784D01*
X2613512Y869876D01*
X2613048Y868937D01*
X2612647Y867969D01*
X2612311Y866977D01*
X2612040Y865965D01*
X2611835Y864938D01*
X2611699Y863899D01*
X2611630Y862854D01*
X2611630Y861806D01*
X2129030Y925306D02*
X2129099Y924261D01*
X2129235Y923222D01*
X2129440Y922195D01*
X2129711Y921183D01*
X2130047Y920191D01*
X2130448Y919223D01*
X2130912Y918284D01*
X2131436Y917376D01*
X2132018Y916505D01*
X2132655Y915674D01*
X2133346Y914887D01*
X2134087Y914146D01*
X2134874Y913455D01*
X2135705Y912818D01*
X2136576Y912236D01*
X2137484Y911712D01*
X2138423Y911248D01*
X2139391Y910847D01*
X2140383Y910511D01*
X2141395Y910240D01*
X2142422Y910035D01*
X2143461Y909899D01*
X2144506Y909830D01*
X2145554Y909830D01*
X2146599Y909899D01*
X2147638Y910035D01*
X2148665Y910240D01*
X2149677Y910511D01*
X2150669Y910847D01*
X2151637Y911248D01*
X2152576Y911712D01*
X2153484Y912236D01*
X2154355Y912818D01*
X2155186Y913455D01*
X2155973Y914146D01*
X2156714Y914887D01*
X2157405Y915674D01*
X2158043Y916505D01*
X2158625Y917376D01*
X2159148Y918284D01*
X2159612Y919223D01*
X2160013Y920191D01*
X2160349Y921183D01*
X2160620Y922195D01*
X2160825Y923222D01*
X2160962Y924261D01*
X2161030Y925306D01*
X2161030Y926354D01*
X2160962Y927399D01*
X2160825Y928438D01*
X2160620Y929465D01*
X2160349Y930477D01*
X2160013Y931469D01*
X2159612Y932437D01*
X2159148Y933376D01*
X2158625Y934284D01*
X2158043Y935155D01*
X2157405Y935986D01*
X2156714Y936773D01*
X2155973Y937514D01*
X2155186Y938205D01*
X2154355Y938843D01*
X2153484Y939425D01*
X2152576Y939948D01*
X2151637Y940412D01*
X2150669Y940813D01*
X2149677Y941149D01*
X2148665Y941420D01*
X2147638Y941625D01*
X2146599Y941762D01*
X2145554Y941830D01*
X2144506Y941830D01*
X2143461Y941762D01*
X2142422Y941625D01*
X2141395Y941420D01*
X2140383Y941149D01*
X2139391Y940813D01*
X2138423Y940412D01*
X2137484Y939948D01*
X2136576Y939425D01*
X2135705Y938843D01*
X2134874Y938205D01*
X2134087Y937514D01*
X2133346Y936773D01*
X2132655Y935986D01*
X2132018Y935155D01*
X2131436Y934284D01*
X2130912Y933376D01*
X2130448Y932437D01*
X2130047Y931469D01*
X2129711Y930477D01*
X2129440Y929465D01*
X2129235Y928438D01*
X2129099Y927399D01*
X2129030Y926354D01*
X2129030Y925306D01*
M02*
