G04 EAGLE Gerber RS-274X export*
G75*
%MOMM*%
%FSLAX34Y34*%
%LPD*%
%INSoldermask Bottom*%
%IPPOS*%
%AMOC8*
5,1,8,0,0,1.08239X$1,22.5*%
G01*
%ADD10C,3.403200*%
%ADD11R,1.561200X1.561200*%
%ADD12C,1.561200*%
%ADD13C,1.879600*%
%ADD14P,1.649562X8X22.500000*%
%ADD15R,2.303200X2.303200*%
%ADD16C,2.303200*%
%ADD17C,2.453200*%
%ADD18C,1.727200*%
%ADD19P,1.649562X8X202.500000*%
%ADD20P,1.869504X8X202.500000*%
%ADD21C,1.371600*%
%ADD22C,1.295400*%
%ADD23C,3.505200*%
%ADD24C,1.244600*%


D10*
X98995Y1801005D03*
X98995Y98995D03*
X2700000Y1800000D03*
X2701005Y98995D03*
X1226840Y1839154D03*
X1399951Y100000D03*
X100000Y950030D03*
D11*
X2627630Y1548130D03*
D12*
X2627630Y1522730D03*
X2627630Y1497330D03*
X2627630Y1471930D03*
X2627630Y1446530D03*
X2627630Y1421130D03*
X2627630Y1395730D03*
X2627630Y1370330D03*
X2627630Y1319530D03*
X2627630Y1294130D03*
X2627630Y1268730D03*
X2627630Y1243330D03*
X2627630Y1217930D03*
X2627630Y1192530D03*
X2627630Y1167130D03*
X2627630Y1141730D03*
X2627630Y1090930D03*
X2627630Y1065530D03*
X2627630Y1040130D03*
X2627630Y1014730D03*
X2627630Y989330D03*
X2627630Y963930D03*
X2627630Y941070D03*
X2627630Y915670D03*
X2576830Y862330D03*
X2576830Y887730D03*
X2551430Y862330D03*
X2551430Y887730D03*
X2526030Y862330D03*
X2526030Y887730D03*
X2500630Y862330D03*
X2500630Y887730D03*
X2475230Y887730D03*
X2475230Y862330D03*
X2449830Y887730D03*
X2449830Y862330D03*
X2424430Y887730D03*
X2424430Y862330D03*
X2399030Y887730D03*
X2399030Y862330D03*
X2373630Y887730D03*
X2373630Y862330D03*
X2348230Y887730D03*
X2348230Y862330D03*
X2322830Y887730D03*
X2322830Y862330D03*
X2297430Y887730D03*
X2297430Y862330D03*
X2272030Y887730D03*
X2272030Y862330D03*
X2246630Y887730D03*
X2246630Y862330D03*
X2221230Y887730D03*
X2221230Y862330D03*
X2195830Y887730D03*
X2195830Y862330D03*
X2170430Y887730D03*
X2170430Y862330D03*
X2145030Y887730D03*
X2145030Y862330D03*
X2145030Y963930D03*
X2145030Y989330D03*
X2145030Y1014730D03*
X2145030Y1040130D03*
X2145030Y1065530D03*
X2145030Y1090930D03*
X2145030Y1116330D03*
X2145030Y1141730D03*
X2145030Y1192530D03*
X2145030Y1217930D03*
X2145030Y1243330D03*
X2145030Y1268730D03*
X2145030Y1294130D03*
X2145030Y1319530D03*
X2145030Y1344930D03*
X2145030Y1370330D03*
X2145030Y1410970D03*
X2145030Y1436370D03*
X2145030Y1461770D03*
X2145030Y1487170D03*
X2145030Y1512570D03*
X2145030Y1537970D03*
X2145030Y1563370D03*
X2145030Y1588770D03*
X2145030Y1614170D03*
X2145030Y1639570D03*
D10*
X2627630Y1687830D03*
X2576830Y1167130D03*
X2297430Y1167130D03*
X2145030Y1675130D03*
X2627630Y862330D03*
X2145030Y925830D03*
D13*
X491490Y1445260D03*
X491490Y1343660D03*
X1893570Y839470D03*
X1893570Y737870D03*
X1892300Y430530D03*
X1892300Y328930D03*
X1601470Y430530D03*
X1601470Y328930D03*
X1310640Y433070D03*
X1310640Y331470D03*
X1028700Y433070D03*
X1028700Y331470D03*
X742950Y429260D03*
X742950Y327660D03*
X488950Y436880D03*
X488950Y335280D03*
X779780Y1437640D03*
X779780Y1336040D03*
X1062990Y1437640D03*
X1062990Y1336040D03*
X1346200Y1437640D03*
X1346200Y1336040D03*
X1624330Y1437640D03*
X1624330Y1336040D03*
X1896110Y1441450D03*
X1896110Y1339850D03*
X847090Y843280D03*
X847090Y741680D03*
X1201420Y835660D03*
X1201420Y734060D03*
X1550670Y834390D03*
X1550670Y732790D03*
D14*
X356870Y1288415D03*
X382270Y1288415D03*
X1766570Y684530D03*
X1791970Y684530D03*
X1758950Y283210D03*
X1784350Y283210D03*
X1471930Y283210D03*
X1497330Y283210D03*
X1193800Y281940D03*
X1219200Y281940D03*
X909320Y280670D03*
X934720Y280670D03*
X632460Y285750D03*
X657860Y285750D03*
X351790Y279400D03*
X377190Y279400D03*
X646430Y1287145D03*
X671830Y1287145D03*
X935990Y1288415D03*
X961390Y1288415D03*
X1214120Y1288415D03*
X1239520Y1288415D03*
X1494790Y1287145D03*
X1520190Y1287145D03*
X1765300Y1283335D03*
X1790700Y1283335D03*
X712470Y693420D03*
X737870Y693420D03*
X1070610Y688340D03*
X1096010Y688340D03*
X1421130Y683260D03*
X1446530Y683260D03*
D15*
X1055370Y1761490D03*
D16*
X1005370Y1761490D03*
X955370Y1761490D03*
X905370Y1761490D03*
X855370Y1761490D03*
X805370Y1761490D03*
X755370Y1761490D03*
X705370Y1761490D03*
X655370Y1761490D03*
X605370Y1761490D03*
D17*
X287020Y1761490D03*
X237020Y1761490D03*
D18*
X364490Y1479550D02*
X364490Y1464310D01*
X389890Y1464310D02*
X389890Y1479550D01*
X415290Y1479550D02*
X415290Y1464310D01*
X1770380Y878840D02*
X1770380Y863600D01*
X1795780Y863600D02*
X1795780Y878840D01*
X1821180Y878840D02*
X1821180Y863600D01*
X1762760Y468630D02*
X1762760Y453390D01*
X1788160Y453390D02*
X1788160Y468630D01*
X1813560Y468630D02*
X1813560Y453390D01*
X1479550Y455930D02*
X1479550Y471170D01*
X1504950Y471170D02*
X1504950Y455930D01*
X1530350Y455930D02*
X1530350Y471170D01*
X1201420Y476250D02*
X1201420Y461010D01*
X1226820Y461010D02*
X1226820Y476250D01*
X1252220Y476250D02*
X1252220Y461010D01*
X911860Y458470D02*
X911860Y473710D01*
X937260Y473710D02*
X937260Y458470D01*
X962660Y458470D02*
X962660Y473710D01*
X636270Y473710D02*
X636270Y458470D01*
X661670Y458470D02*
X661670Y473710D01*
X687070Y473710D02*
X687070Y458470D01*
X353060Y462280D02*
X353060Y477520D01*
X378460Y477520D02*
X378460Y462280D01*
X403860Y462280D02*
X403860Y477520D01*
X650240Y1464310D02*
X650240Y1479550D01*
X675640Y1479550D02*
X675640Y1464310D01*
X701040Y1464310D02*
X701040Y1479550D01*
X937260Y1479550D02*
X937260Y1464310D01*
X962660Y1464310D02*
X962660Y1479550D01*
X988060Y1479550D02*
X988060Y1464310D01*
X1217930Y1463040D02*
X1217930Y1478280D01*
X1243330Y1478280D02*
X1243330Y1463040D01*
X1268730Y1463040D02*
X1268730Y1478280D01*
X1496060Y1478280D02*
X1496060Y1463040D01*
X1521460Y1463040D02*
X1521460Y1478280D01*
X1546860Y1478280D02*
X1546860Y1463040D01*
X1775460Y1465580D02*
X1775460Y1480820D01*
X1800860Y1480820D02*
X1800860Y1465580D01*
X1826260Y1465580D02*
X1826260Y1480820D01*
X716280Y880110D02*
X716280Y864870D01*
X741680Y864870D02*
X741680Y880110D01*
X767080Y880110D02*
X767080Y864870D01*
X1075690Y861060D02*
X1075690Y876300D01*
X1101090Y876300D02*
X1101090Y861060D01*
X1126490Y861060D02*
X1126490Y876300D01*
X1421130Y875030D02*
X1421130Y859790D01*
X1446530Y859790D02*
X1446530Y875030D01*
X1471930Y875030D02*
X1471930Y859790D01*
D14*
X341630Y1417320D03*
X443230Y1417320D03*
X1197610Y1416050D03*
X1299210Y1416050D03*
X1197610Y1381760D03*
X1299210Y1381760D03*
X1196340Y1344930D03*
X1297940Y1344930D03*
X1477010Y1414780D03*
X1578610Y1414780D03*
X1477010Y1379220D03*
X1578610Y1379220D03*
X1478280Y1341120D03*
X1579880Y1341120D03*
X1756410Y1418590D03*
X1858010Y1418590D03*
X1756410Y1379220D03*
X1858010Y1379220D03*
X1756410Y1342390D03*
X1858010Y1342390D03*
X695960Y821690D03*
X797560Y821690D03*
X341630Y1379220D03*
X443230Y1379220D03*
X695960Y782320D03*
X797560Y782320D03*
X694690Y745490D03*
X796290Y745490D03*
X1057910Y810260D03*
X1159510Y810260D03*
X1057910Y778510D03*
X1159510Y778510D03*
X1056640Y741680D03*
X1158240Y741680D03*
X1403350Y810260D03*
X1504950Y810260D03*
X1403350Y777240D03*
X1504950Y777240D03*
X1403350Y740410D03*
X1504950Y740410D03*
X1748790Y812800D03*
X1850390Y812800D03*
X1748790Y777240D03*
X1850390Y777240D03*
X342900Y1343660D03*
X444500Y1343660D03*
X1750060Y739140D03*
X1851660Y739140D03*
X1743710Y408940D03*
X1845310Y408940D03*
X1743710Y373380D03*
X1845310Y373380D03*
X1743710Y336550D03*
X1845310Y336550D03*
X1460500Y403860D03*
X1562100Y403860D03*
X1460500Y370840D03*
X1562100Y370840D03*
X1460500Y336550D03*
X1562100Y336550D03*
X1176020Y411480D03*
X1277620Y411480D03*
X1177290Y373380D03*
X1278890Y373380D03*
X1174750Y336550D03*
X1276350Y336550D03*
X632460Y1413510D03*
X734060Y1413510D03*
X891540Y406400D03*
X993140Y406400D03*
X891540Y372110D03*
X993140Y372110D03*
X891540Y336550D03*
X993140Y336550D03*
X615950Y406400D03*
X717550Y406400D03*
X615950Y375920D03*
X717550Y375920D03*
X615950Y339090D03*
X717550Y339090D03*
X332740Y407670D03*
X434340Y407670D03*
X332740Y370840D03*
X434340Y370840D03*
X332740Y335280D03*
X434340Y335280D03*
X631190Y1376680D03*
X732790Y1376680D03*
X631190Y1339850D03*
X732790Y1339850D03*
X916940Y1414780D03*
X1018540Y1414780D03*
X916940Y1380490D03*
X1018540Y1380490D03*
X915670Y1343660D03*
X1017270Y1343660D03*
X342900Y782320D03*
X444500Y782320D03*
X342900Y816610D03*
X444500Y816610D03*
X341630Y745490D03*
X443230Y745490D03*
D18*
X365760Y864870D02*
X365760Y880110D01*
X391160Y880110D02*
X391160Y864870D01*
X416560Y864870D02*
X416560Y880110D01*
D14*
X360680Y693420D03*
X386080Y693420D03*
D13*
X487680Y840740D03*
X487680Y739140D03*
D15*
X1689100Y1760220D03*
D16*
X1639100Y1760220D03*
X1589100Y1760220D03*
X1539100Y1760220D03*
X1489100Y1760220D03*
X1439100Y1760220D03*
X1389100Y1760220D03*
D18*
X1250950Y1780540D02*
X1250950Y1795780D01*
X1225550Y1795780D02*
X1225550Y1780540D01*
X1200150Y1780540D02*
X1200150Y1795780D01*
D19*
X1273810Y1732280D03*
X1172210Y1732280D03*
D18*
X419100Y1783080D02*
X419100Y1798320D01*
X444500Y1798320D02*
X444500Y1783080D01*
X469900Y1783080D02*
X469900Y1798320D01*
D20*
X2463800Y127000D03*
X2438400Y127000D03*
X2413000Y127000D03*
X2387600Y127000D03*
X2362200Y127000D03*
X2336800Y127000D03*
X2311400Y127000D03*
X2286000Y127000D03*
X2260600Y127000D03*
X2235200Y127000D03*
X2209800Y127000D03*
X2184400Y127000D03*
X2159000Y127000D03*
X2133600Y127000D03*
X2108200Y127000D03*
X2082800Y127000D03*
X2057400Y127000D03*
X2032000Y127000D03*
X2463800Y152400D03*
X2438400Y152400D03*
X2413000Y152400D03*
X2387600Y152400D03*
X2362200Y152400D03*
X2336800Y152400D03*
X2311400Y152400D03*
X2286000Y152400D03*
X2260600Y152400D03*
X2235200Y152400D03*
X2209800Y152400D03*
X2184400Y152400D03*
X2159000Y152400D03*
X2133600Y152400D03*
X2108200Y152400D03*
X2082800Y152400D03*
X2057400Y152400D03*
X2032000Y152400D03*
D18*
X2002790Y1789430D02*
X2002790Y1804670D01*
X1977390Y1804670D02*
X1977390Y1789430D01*
X1951990Y1789430D02*
X1951990Y1804670D01*
D19*
X1916430Y1821180D03*
X1814830Y1821180D03*
D21*
X2123440Y993140D03*
X2125980Y711200D03*
X2125980Y732790D03*
X2125980Y754380D03*
X2125980Y775970D03*
X2125980Y800100D03*
X2125980Y822960D03*
D22*
X2183130Y929640D03*
D21*
X2692400Y601980D03*
D23*
X289560Y1503680D03*
X294640Y904240D03*
X525780Y247650D03*
X783590Y245110D03*
X1064514Y248920D03*
X1347470Y245110D03*
X1640840Y245110D03*
X1930400Y247650D03*
X294640Y943610D03*
X294640Y982980D03*
X293370Y1022350D03*
X294640Y1062990D03*
X290830Y1541780D03*
X290830Y1581150D03*
X290830Y1620520D03*
X457200Y1651000D03*
X447040Y1711960D03*
D21*
X2702560Y585470D03*
X1992630Y420370D03*
X2711450Y568960D03*
X1998980Y403860D03*
X1464310Y1780540D03*
D23*
X584200Y1443990D03*
X741680Y1041400D03*
X1879600Y1215390D03*
X1101090Y1013460D03*
X1446530Y977900D03*
X1967230Y1110996D03*
X1795780Y948690D03*
X2062480Y1714246D03*
X1968500Y463296D03*
X2531110Y1750060D03*
X2139218Y639542D03*
X2138680Y463550D03*
X1676400Y430530D03*
X1639570Y1825244D03*
X2571750Y1786890D03*
X1797050Y1786890D03*
X1394460Y433070D03*
X1117600Y431800D03*
X838200Y435610D03*
X568960Y436880D03*
D21*
X2125980Y972820D03*
X2183130Y976630D03*
D23*
X558800Y1681480D03*
X533400Y1409700D03*
X533400Y1295400D03*
D21*
X2578100Y1616710D03*
X2578100Y1549400D03*
D24*
X2475230Y327660D03*
X2475230Y360680D03*
X2475230Y392430D03*
X2589530Y734060D03*
X2475230Y421640D03*
X2559050Y703580D03*
X2475230Y453390D03*
X2475230Y487680D03*
X2475230Y519430D03*
X2475230Y551180D03*
X2475230Y344170D03*
X2475230Y376682D03*
X2603500Y750570D03*
X2475230Y406400D03*
X2574290Y718820D03*
X2475230Y436880D03*
X2475230Y471170D03*
X2475230Y504190D03*
X2475230Y535940D03*
M02*
