M48
;GenerationSoftware,Autodesk,EAGLE,9.6.2*%
;CreationDate,2023-12-06T18:37:32Z*%
FMAT,2
ICI,OFF
METRIC,TZ,000.000
T11C0.635
T10C0.686
T9C0.762
T8C0.813
T7C0.850
T6C1.016
T5C1.118
T4C1.400
T3C1.500
T2C2.286
T1C3.200
%
G90
M71
T1
X262763Y86233
X10000Y95003
X139995Y10000
X122684Y183915
X270101Y9900
X270000Y180000
X9900Y9900
X9900Y180100
X214503Y92583
X262763Y168783
X257683Y116713
X229743Y116713
X214503Y167513
T2
X106451Y24892
X134747Y24511
X164084Y24511
X193040Y24765
X29464Y94361
X29464Y98298
X29337Y102235
X29464Y106299
X29083Y154178
X29083Y158115
X29083Y162052
X45720Y165100
X44704Y171196
X55880Y168148
X78359Y24511
X52578Y24765
X29464Y90424
X28956Y150368
X58420Y144399
X74168Y104140
X187960Y121539
X110109Y101346
X144653Y97790
X196723Y111100
X179578Y94869
X206248Y171425
X196850Y46330
X253111Y175006
X213922Y63954
X213868Y46355
X167640Y43053
X163957Y182524
X257175Y178689
X179705Y178689
X139446Y43307
X111760Y43180
X83820Y43561
X56896Y43688
X53340Y129540
X53340Y140970
T3
X23702Y176149
X28702Y176149
T4
X168910Y176022
X158910Y176022
X153910Y176022
X148910Y176022
X143910Y176022
X138910Y176022
X163910Y176022
X60537Y176149
X65537Y176149
X70537Y176149
X75537Y176149
X80537Y176149
X85537Y176149
X90537Y176149
X95537Y176149
X100537Y176149
X105537Y176149
T5
X134620Y143764
X106299Y133604
X106299Y143764
X77978Y133604
X77978Y143764
X48768Y73914
X48768Y84074
X134620Y133604
X162433Y143764
X162433Y133604
X189611Y144145
X189611Y133985
X84709Y84328
X84709Y74168
X120142Y83566
X120142Y73406
X155067Y83439
X155067Y73279
X48895Y33528
X48895Y43688
X74295Y32766
X74295Y42926
X102870Y33147
X102870Y43307
X131064Y33147
X131064Y43307
X160147Y32893
X160147Y43053
X189230Y32893
X189230Y43053
X189357Y73787
X189357Y83947
X49149Y134366
X49149Y144526
T6
X154686Y147066
X228600Y12700
X152146Y147066
X149606Y147066
X126873Y147066
X124333Y147066
X121793Y147066
X98806Y147193
X96266Y147193
X93726Y147193
X70104Y147193
X67564Y147193
X65024Y147193
X40386Y46990
X37846Y46990
X35306Y46990
X68707Y46609
X66167Y46609
X63627Y46609
X96266Y46609
X93726Y46609
X91186Y46609
X125222Y46863
X122682Y46863
X120142Y46863
X153035Y46355
X150495Y46355
X147955Y46355
X181356Y46101
X178816Y46101
X176276Y46101
X182118Y87122
X179578Y87122
X177038Y87122
X41529Y147193
X38989Y147193
X36449Y147193
X195199Y179705
X197739Y179705
X200279Y179705
X203200Y15240
X205740Y15240
X208280Y15240
X210820Y15240
X213360Y15240
X215900Y15240
X218440Y15240
X220980Y15240
X223520Y15240
X177546Y147320
X180086Y147320
X182626Y147320
X71628Y87249
X74168Y87249
X76708Y87249
X107569Y86868
X110109Y86868
X112649Y86868
X142113Y86741
X144653Y86741
X147193Y86741
X36576Y87249
X39116Y87249
X41656Y87249
X226060Y15240
X228600Y15240
X231140Y15240
X233680Y15240
X236220Y15240
X238760Y15240
X241300Y15240
X243840Y15240
X246380Y15240
X125095Y178816
X122555Y178816
X120015Y178816
X41910Y179070
X44450Y179070
X46990Y179070
X246380Y12700
X243840Y12700
X203200Y12700
X205740Y12700
X208280Y12700
X210820Y12700
X213360Y12700
X241300Y12700
X238760Y12700
X236220Y12700
X233680Y12700
X231140Y12700
X215900Y12700
X226060Y12700
X223520Y12700
X220980Y12700
X218440Y12700
T7
X262763Y106553
X262763Y154813
X262763Y152273
X262763Y149733
X262763Y147193
X262763Y144653
X262763Y142113
X262763Y139573
X262763Y137033
X262763Y131953
X262763Y129413
X262763Y126873
X262763Y124333
X262763Y121793
X262763Y119253
X262763Y116713
X262763Y114173
X214503Y163957
X214503Y161417
X214503Y158877
X214503Y156337
X214503Y153797
X214503Y151257
X214503Y148717
X214503Y146177
X214503Y143637
X214503Y141097
X214503Y137033
X214503Y134493
X214503Y131953
X214503Y129413
X214503Y126873
X214503Y124333
X214503Y121793
X214503Y119253
X214503Y114173
X214503Y111633
X214503Y109093
X214503Y106553
X214503Y104013
X214503Y101473
X214503Y98933
X214503Y96393
X214503Y86233
X214503Y88773
X217043Y86233
X217043Y88773
X219583Y86233
X262763Y109093
X222123Y86233
X222123Y88773
X224663Y86233
X224663Y88773
X227203Y86233
X227203Y88773
X229743Y86233
X229743Y88773
X232283Y86233
X232283Y88773
X234823Y86233
X234823Y88773
X237363Y86233
X237363Y88773
X239903Y86233
X239903Y88773
X242443Y86233
X242443Y88773
X244983Y86233
X244983Y88773
X247523Y86233
X247523Y88773
X250063Y88773
X250063Y86233
X252603Y88773
X252603Y86233
X255143Y88773
X255143Y86233
X257683Y88773
X257683Y86233
X262763Y91567
X262763Y94107
X262763Y96393
X262763Y98933
X262763Y101473
X262763Y104013
X219583Y88773
T8
X144653Y68326
X142113Y68326
X109601Y68834
X107061Y68834
X73787Y69342
X71247Y69342
X179070Y128333
X181483Y182118
X152019Y128714
X149479Y128714
X123952Y128841
X121412Y128841
X34163Y141732
X44323Y141732
X119761Y141605
X129921Y141605
X119761Y138176
X129921Y138176
X119634Y134493
X129794Y134493
X147701Y141478
X157861Y141478
X147701Y137922
X157861Y137922
X147828Y134112
X157988Y134112
X175641Y141859
X185801Y141859
X175641Y137922
X185801Y137922
X175641Y134239
X185801Y134239
X69596Y82169
X79756Y82169
X34163Y137922
X44323Y137922
X69596Y78232
X79756Y78232
X69469Y74549
X79629Y74549
X105791Y81026
X115951Y81026
X105791Y77851
X115951Y77851
X105664Y74168
X115824Y74168
X140335Y81026
X150495Y81026
X140335Y77724
X150495Y77724
X140335Y74041
X150495Y74041
X174879Y81280
X185039Y81280
X174879Y77724
X185039Y77724
X34290Y134366
X44450Y134366
X175006Y73914
X185166Y73914
X174371Y40894
X184531Y40894
X174371Y37338
X184531Y37338
X174371Y33655
X184531Y33655
X146050Y40386
X156210Y40386
X146050Y37084
X156210Y37084
X146050Y33655
X156210Y33655
X117602Y41148
X127762Y41148
X117729Y37338
X127889Y37338
X117475Y33655
X127635Y33655
X63246Y141351
X73406Y141351
X89154Y40640
X99314Y40640
X89154Y37211
X99314Y37211
X89154Y33655
X99314Y33655
X61595Y40640
X71755Y40640
X61595Y37592
X71755Y37592
X61595Y33909
X71755Y33909
X33274Y40767
X43434Y40767
X33274Y37084
X43434Y37084
X33274Y33528
X43434Y33528
X63119Y137668
X73279Y137668
X63119Y133985
X73279Y133985
X91694Y141478
X101854Y141478
X91694Y138049
X101854Y138049
X91567Y134366
X101727Y134366
X34290Y78232
X44450Y78232
X34290Y81661
X44450Y81661
X34163Y74549
X44323Y74549
X96139Y128841
X93599Y128841
X67183Y128714
X36068Y69342
X38608Y69342
X64643Y128714
X37719Y27940
X35179Y27940
X65786Y28575
X63246Y28575
X93472Y28067
X90932Y28067
X121920Y28194
X119380Y28194
X149733Y28321
X147193Y28321
X178435Y28321
X127381Y173228
X117221Y173228
X175895Y28321
X179197Y68453
X176657Y68453
X38227Y128841
X35687Y128841
X191643Y182118
X176530Y128333
T9
X257810Y161671
X212598Y71120
X212598Y73279
X212598Y75438
X212598Y77597
X212598Y80010
X212598Y82296
X269240Y60198
X270256Y58547
X199263Y42037
X271145Y56896
X199898Y40386
X146431Y178054
X212598Y97282
X218313Y97663
X212344Y99314
X257810Y154940
T10
X218313Y92964
T11
X247523Y32766
X247523Y36068
X247523Y39243
X258953Y73406
X247523Y42164
X255905Y70358
X247523Y45339
X247523Y48768
X247523Y51943
X247523Y55118
X247523Y34417
X247523Y37668
X260350Y75057
X247523Y40640
X257429Y71882
X247523Y43688
X247523Y50419
X247523Y53594
X247523Y47117
M30